<svg width="380" height="164" viewBox="0 0 380 164" fill="none" xmlns="http://www.w3.org/2000/svg">
<path d="M146.133 97.7188L147.664 89.625H150L147.477 101H145.117L143.266 93.3906L141.414 101H139.055L136.531 89.625H138.867L140.406 97.7031L142.281 89.625H144.266L146.133 97.7188ZM153.508 101H151.242V92.5469H153.508V101ZM151.109 90.3594C151.109 90.0208 151.221 89.7422 151.445 89.5234C151.674 89.3047 151.984 89.1953 152.375 89.1953C152.76 89.1953 153.068 89.3047 153.297 89.5234C153.526 89.7422 153.641 90.0208 153.641 90.3594C153.641 90.7031 153.523 90.9844 153.289 91.2031C153.06 91.4219 152.755 91.5312 152.375 91.5312C151.995 91.5312 151.688 91.4219 151.453 91.2031C151.224 90.9844 151.109 90.7031 151.109 90.3594ZM155.023 96.7109C155.023 95.3932 155.318 94.3438 155.906 93.5625C156.5 92.7812 157.31 92.3906 158.336 92.3906C159.159 92.3906 159.839 92.6979 160.375 93.3125V89H162.641V101H160.602L160.492 100.102C159.93 100.805 159.206 101.156 158.32 101.156C157.326 101.156 156.526 100.766 155.922 99.9844C155.323 99.1979 155.023 98.1068 155.023 96.7109ZM157.281 96.875C157.281 97.6667 157.419 98.2734 157.695 98.6953C157.971 99.1172 158.372 99.3281 158.898 99.3281C159.596 99.3281 160.089 99.0339 160.375 98.4453V95.1094C160.094 94.5208 159.607 94.2266 158.914 94.2266C157.826 94.2266 157.281 95.1094 157.281 96.875ZM164.062 96.7109C164.062 95.4141 164.37 94.3698 164.984 93.5781C165.604 92.7865 166.438 92.3906 167.484 92.3906C168.411 92.3906 169.133 92.7083 169.648 93.3438L169.742 92.5469H171.789V100.719C171.789 101.458 171.62 102.102 171.281 102.648C170.948 103.195 170.477 103.612 169.867 103.898C169.258 104.185 168.544 104.328 167.727 104.328C167.107 104.328 166.503 104.203 165.914 103.953C165.326 103.708 164.88 103.391 164.578 103L165.578 101.625C166.141 102.255 166.823 102.57 167.625 102.57C168.224 102.57 168.69 102.409 169.023 102.086C169.357 101.768 169.523 101.315 169.523 100.727V100.273C169.003 100.862 168.318 101.156 167.469 101.156C166.453 101.156 165.63 100.76 165 99.9688C164.375 99.1719 164.062 98.1172 164.062 96.8047V96.7109ZM166.32 96.875C166.32 97.6406 166.474 98.2422 166.781 98.6797C167.089 99.112 167.51 99.3281 168.047 99.3281C168.734 99.3281 169.227 99.0703 169.523 98.5547V95C169.221 94.4844 168.734 94.2266 168.062 94.2266C167.521 94.2266 167.094 94.4479 166.781 94.8906C166.474 95.3333 166.32 95.9948 166.32 96.875ZM177.422 101.156C176.182 101.156 175.172 100.776 174.391 100.016C173.615 99.2552 173.227 98.2422 173.227 96.9766V96.7578C173.227 95.9089 173.391 95.151 173.719 94.4844C174.047 93.8125 174.51 93.2969 175.109 92.9375C175.714 92.5729 176.401 92.3906 177.172 92.3906C178.328 92.3906 179.237 92.7552 179.898 93.4844C180.565 94.2135 180.898 95.2474 180.898 96.5859V97.5078H175.516C175.589 98.0599 175.807 98.5026 176.172 98.8359C176.542 99.1693 177.008 99.3359 177.57 99.3359C178.44 99.3359 179.12 99.0208 179.609 98.3906L180.719 99.6328C180.38 100.112 179.922 100.487 179.344 100.758C178.766 101.023 178.125 101.156 177.422 101.156ZM177.164 94.2188C176.716 94.2188 176.352 94.3698 176.07 94.6719C175.794 94.974 175.617 95.4062 175.539 95.9688H178.68V95.7891C178.669 95.2891 178.534 94.9036 178.273 94.6328C178.013 94.3568 177.643 94.2188 177.164 94.2188ZM184.891 90.4688V92.5469H186.336V94.2031H184.891V98.4219C184.891 98.7344 184.951 98.9583 185.07 99.0938C185.19 99.2292 185.419 99.2969 185.758 99.2969C186.008 99.2969 186.229 99.2786 186.422 99.2422V100.953C185.979 101.089 185.523 101.156 185.055 101.156C183.471 101.156 182.664 100.357 182.633 98.7578V94.2031H181.398V92.5469H182.633V90.4688H184.891ZM197.625 98.0156C197.625 97.5729 197.469 97.2344 197.156 97C196.844 96.7604 196.281 96.5104 195.469 96.25C194.656 95.9844 194.013 95.724 193.539 95.4688C192.247 94.7708 191.602 93.8307 191.602 92.6484C191.602 92.0339 191.773 91.487 192.117 91.0078C192.466 90.5234 192.964 90.1458 193.609 89.875C194.26 89.6042 194.99 89.4688 195.797 89.4688C196.609 89.4688 197.333 89.6172 197.969 89.9141C198.604 90.2057 199.096 90.6198 199.445 91.1562C199.799 91.6927 199.977 92.3021 199.977 92.9844H197.633C197.633 92.4635 197.469 92.0599 197.141 91.7734C196.812 91.4818 196.352 91.3359 195.758 91.3359C195.185 91.3359 194.74 91.4583 194.422 91.7031C194.104 91.9427 193.945 92.2604 193.945 92.6562C193.945 93.026 194.13 93.3359 194.5 93.5859C194.875 93.8359 195.424 94.0703 196.148 94.2891C197.482 94.6901 198.453 95.1875 199.062 95.7812C199.672 96.375 199.977 97.1146 199.977 98C199.977 98.9844 199.604 99.7578 198.859 100.32C198.115 100.878 197.112 101.156 195.852 101.156C194.977 101.156 194.18 100.997 193.461 100.68C192.742 100.357 192.193 99.9167 191.812 99.3594C191.438 98.8021 191.25 98.1562 191.25 97.4219H193.602C193.602 98.6771 194.352 99.3047 195.852 99.3047C196.409 99.3047 196.844 99.1927 197.156 98.9688C197.469 98.7396 197.625 98.4219 197.625 98.0156ZM204.578 97.8047L206.141 92.5469H208.562L205.164 102.312L204.977 102.758C204.471 103.862 203.638 104.414 202.477 104.414C202.148 104.414 201.815 104.365 201.477 104.266V102.555L201.82 102.562C202.247 102.562 202.565 102.497 202.773 102.367C202.987 102.237 203.154 102.021 203.273 101.719L203.539 101.023L200.578 92.5469H203.008L204.578 97.8047ZM214.031 98.6641C214.031 98.388 213.893 98.1719 213.617 98.0156C213.346 97.8542 212.909 97.7109 212.305 97.5859C210.294 97.1641 209.289 96.3099 209.289 95.0234C209.289 94.2734 209.599 93.6484 210.219 93.1484C210.844 92.6432 211.659 92.3906 212.664 92.3906C213.737 92.3906 214.594 92.6432 215.234 93.1484C215.88 93.6536 216.203 94.3099 216.203 95.1172H213.945C213.945 94.7943 213.841 94.5286 213.633 94.3203C213.424 94.1068 213.099 94 212.656 94C212.276 94 211.982 94.0859 211.773 94.2578C211.565 94.4297 211.461 94.6484 211.461 94.9141C211.461 95.1641 211.578 95.3672 211.812 95.5234C212.052 95.6745 212.453 95.8073 213.016 95.9219C213.578 96.0312 214.052 96.1562 214.438 96.2969C215.63 96.7344 216.227 97.4922 216.227 98.5703C216.227 99.3411 215.896 99.9661 215.234 100.445C214.573 100.919 213.719 101.156 212.672 101.156C211.964 101.156 211.333 101.031 210.781 100.781C210.234 100.526 209.805 100.18 209.492 99.7422C209.18 99.2995 209.023 98.8229 209.023 98.3125H211.164C211.185 98.7135 211.333 99.0208 211.609 99.2344C211.885 99.4479 212.255 99.5547 212.719 99.5547C213.151 99.5547 213.477 99.474 213.695 99.3125C213.919 99.1458 214.031 98.9297 214.031 98.6641ZM220.391 90.4688V92.5469H221.836V94.2031H220.391V98.4219C220.391 98.7344 220.451 98.9583 220.57 99.0938C220.69 99.2292 220.919 99.2969 221.258 99.2969C221.508 99.2969 221.729 99.2786 221.922 99.2422V100.953C221.479 101.089 221.023 101.156 220.555 101.156C218.971 101.156 218.164 100.357 218.133 98.7578V94.2031H216.898V92.5469H218.133V90.4688H220.391ZM226.984 101.156C225.745 101.156 224.734 100.776 223.953 100.016C223.177 99.2552 222.789 98.2422 222.789 96.9766V96.7578C222.789 95.9089 222.953 95.151 223.281 94.4844C223.609 93.8125 224.073 93.2969 224.672 92.9375C225.276 92.5729 225.964 92.3906 226.734 92.3906C227.891 92.3906 228.799 92.7552 229.461 93.4844C230.128 94.2135 230.461 95.2474 230.461 96.5859V97.5078H225.078C225.151 98.0599 225.37 98.5026 225.734 98.8359C226.104 99.1693 226.57 99.3359 227.133 99.3359C228.003 99.3359 228.682 99.0208 229.172 98.3906L230.281 99.6328C229.943 100.112 229.484 100.487 228.906 100.758C228.328 101.023 227.688 101.156 226.984 101.156ZM226.727 94.2188C226.279 94.2188 225.914 94.3698 225.633 94.6719C225.357 94.974 225.18 95.4062 225.102 95.9688H228.242V95.7891C228.232 95.2891 228.096 94.9036 227.836 94.6328C227.576 94.3568 227.206 94.2188 226.727 94.2188ZM233.867 92.5469L233.938 93.4922C234.536 92.7578 235.346 92.3906 236.367 92.3906C237.456 92.3906 238.203 92.8203 238.609 93.6797C239.203 92.8203 240.049 92.3906 241.148 92.3906C242.065 92.3906 242.747 92.6589 243.195 93.1953C243.643 93.7266 243.867 94.5286 243.867 95.6016V101H241.602V95.6094C241.602 95.1302 241.508 94.7812 241.32 94.5625C241.133 94.3385 240.802 94.2266 240.328 94.2266C239.651 94.2266 239.182 94.5495 238.922 95.1953L238.93 101H236.672V95.6172C236.672 95.1276 236.576 94.7734 236.383 94.5547C236.19 94.3359 235.862 94.2266 235.398 94.2266C234.758 94.2266 234.294 94.4922 234.008 95.0234V101H231.75V92.5469H233.867Z" fill="#172755"/>
<path d="M24.0156 130.93C22.7292 130.56 21.7917 130.107 21.2031 129.57C20.6198 129.029 20.3281 128.362 20.3281 127.57C20.3281 126.674 20.6849 125.935 21.3984 125.352C22.1172 124.763 23.0495 124.469 24.1953 124.469C24.9766 124.469 25.6719 124.62 26.2812 124.922C26.8958 125.224 27.3698 125.641 27.7031 126.172C28.0417 126.703 28.2109 127.284 28.2109 127.914H26.7031C26.7031 127.227 26.4844 126.688 26.0469 126.297C25.6094 125.901 24.9922 125.703 24.1953 125.703C23.4557 125.703 22.8776 125.867 22.4609 126.195C22.0495 126.518 21.8438 126.969 21.8438 127.547C21.8438 128.01 22.0391 128.404 22.4297 128.727C22.8255 129.044 23.4948 129.336 24.4375 129.602C25.3854 129.867 26.125 130.161 26.6562 130.484C27.1927 130.802 27.5885 131.174 27.8438 131.602C28.1042 132.029 28.2344 132.531 28.2344 133.109C28.2344 134.031 27.875 134.771 27.1562 135.328C26.4375 135.88 25.4766 136.156 24.2734 136.156C23.4922 136.156 22.763 136.008 22.0859 135.711C21.4089 135.409 20.8854 134.997 20.5156 134.477C20.151 133.956 19.9688 133.365 19.9688 132.703H21.4766C21.4766 133.391 21.7292 133.935 22.2344 134.336C22.7448 134.732 23.4245 134.93 24.2734 134.93C25.0651 134.93 25.6719 134.768 26.0938 134.445C26.5156 134.122 26.7266 133.682 26.7266 133.125C26.7266 132.568 26.5312 132.138 26.1406 131.836C25.75 131.529 25.0417 131.227 24.0156 130.93ZM35.1562 136C35.0729 135.833 35.0052 135.536 34.9531 135.109C34.2812 135.807 33.4792 136.156 32.5469 136.156C31.7135 136.156 31.0286 135.922 30.4922 135.453C29.9609 134.979 29.6953 134.38 29.6953 133.656C29.6953 132.776 30.0286 132.094 30.6953 131.609C31.3672 131.12 32.3099 130.875 33.5234 130.875H34.9297V130.211C34.9297 129.706 34.7786 129.305 34.4766 129.008C34.1745 128.706 33.7292 128.555 33.1406 128.555C32.625 128.555 32.1927 128.685 31.8438 128.945C31.4948 129.206 31.3203 129.521 31.3203 129.891H29.8672C29.8672 129.469 30.0156 129.062 30.3125 128.672C30.6146 128.276 31.0208 127.964 31.5312 127.734C32.0469 127.505 32.612 127.391 33.2266 127.391C34.2005 127.391 34.9635 127.635 35.5156 128.125C36.0677 128.609 36.3542 129.279 36.375 130.133V134.023C36.375 134.799 36.474 135.417 36.6719 135.875V136H35.1562ZM32.7578 134.898C33.2109 134.898 33.6406 134.781 34.0469 134.547C34.4531 134.312 34.7474 134.008 34.9297 133.633V131.898H33.7969C32.026 131.898 31.1406 132.417 31.1406 133.453C31.1406 133.906 31.2917 134.26 31.5938 134.516C31.8958 134.771 32.2839 134.898 32.7578 134.898ZM45.7812 131.867C45.7812 133.154 45.487 134.19 44.8984 134.977C44.3099 135.763 43.513 136.156 42.5078 136.156C41.4818 136.156 40.6745 135.831 40.0859 135.18V139.25H38.6406V127.547H39.9609L40.0312 128.484C40.6198 127.755 41.4375 127.391 42.4844 127.391C43.5 127.391 44.3021 127.773 44.8906 128.539C45.4844 129.305 45.7812 130.37 45.7812 131.734V131.867ZM44.3359 131.703C44.3359 130.75 44.1328 129.997 43.7266 129.445C43.3203 128.893 42.763 128.617 42.0547 128.617C41.1797 128.617 40.5234 129.005 40.0859 129.781V133.82C40.5182 134.591 41.1797 134.977 42.0703 134.977C42.763 134.977 43.3125 134.703 43.7188 134.156C44.1302 133.604 44.3359 132.786 44.3359 131.703ZM49.1953 136H47.75V127.547H49.1953V136ZM47.6328 125.305C47.6328 125.07 47.7031 124.872 47.8438 124.711C47.9896 124.549 48.2031 124.469 48.4844 124.469C48.7656 124.469 48.9792 124.549 49.125 124.711C49.2708 124.872 49.3438 125.07 49.3438 125.305C49.3438 125.539 49.2708 125.734 49.125 125.891C48.9792 126.047 48.7656 126.125 48.4844 126.125C48.2031 126.125 47.9896 126.047 47.8438 125.891C47.7031 125.734 47.6328 125.539 47.6328 125.305ZM55.0234 136.156C53.8776 136.156 52.9453 135.781 52.2266 135.031C51.5078 134.276 51.1484 133.268 51.1484 132.008V131.742C51.1484 130.904 51.3073 130.156 51.625 129.5C51.9479 128.839 52.3958 128.323 52.9688 127.953C53.5469 127.578 54.1719 127.391 54.8438 127.391C55.9427 127.391 56.7969 127.753 57.4062 128.477C58.0156 129.201 58.3203 130.237 58.3203 131.586V132.188H52.5938C52.6146 133.021 52.8568 133.695 53.3203 134.211C53.7891 134.721 54.3828 134.977 55.1016 134.977C55.612 134.977 56.0443 134.872 56.3984 134.664C56.7526 134.456 57.0625 134.18 57.3281 133.836L58.2109 134.523C57.5026 135.612 56.4401 136.156 55.0234 136.156ZM54.8438 128.578C54.2604 128.578 53.7708 128.792 53.375 129.219C52.9792 129.641 52.7344 130.234 52.6406 131H56.875V130.891C56.8333 130.156 56.6354 129.589 56.2812 129.188C55.9271 128.781 55.4479 128.578 54.8438 128.578ZM61.3672 127.547L61.4141 128.609C62.0599 127.797 62.9036 127.391 63.9453 127.391C65.7318 127.391 66.6328 128.398 66.6484 130.414V136H65.2031V130.406C65.1979 129.797 65.0573 129.346 64.7812 129.055C64.5104 128.763 64.0859 128.617 63.5078 128.617C63.0391 128.617 62.6276 128.742 62.2734 128.992C61.9193 129.242 61.6432 129.57 61.4453 129.977V136H60V127.547H61.3672ZM74.3672 136H72.9219V127.547H74.3672V136ZM72.8047 125.305C72.8047 125.07 72.875 124.872 73.0156 124.711C73.1615 124.549 73.375 124.469 73.6562 124.469C73.9375 124.469 74.151 124.549 74.2969 124.711C74.4427 124.872 74.5156 125.07 74.5156 125.305C74.5156 125.539 74.4427 125.734 74.2969 125.891C74.151 126.047 73.9375 126.125 73.6562 126.125C73.375 126.125 73.1615 126.047 73.0156 125.891C72.875 125.734 72.8047 125.539 72.8047 125.305ZM78.0547 127.547L78.1016 128.609C78.7474 127.797 79.5911 127.391 80.6328 127.391C82.4193 127.391 83.3203 128.398 83.3359 130.414V136H81.8906V130.406C81.8854 129.797 81.7448 129.346 81.4688 129.055C81.1979 128.763 80.7734 128.617 80.1953 128.617C79.7266 128.617 79.3151 128.742 78.9609 128.992C78.6068 129.242 78.3307 129.57 78.1328 129.977V136H76.6875V127.547H78.0547ZM92.9922 136.156C91.8464 136.156 90.9141 135.781 90.1953 135.031C89.4766 134.276 89.1172 133.268 89.1172 132.008V131.742C89.1172 130.904 89.276 130.156 89.5938 129.5C89.9167 128.839 90.3646 128.323 90.9375 127.953C91.5156 127.578 92.1406 127.391 92.8125 127.391C93.9115 127.391 94.7656 127.753 95.375 128.477C95.9844 129.201 96.2891 130.237 96.2891 131.586V132.188H90.5625C90.5833 133.021 90.8255 133.695 91.2891 134.211C91.7578 134.721 92.3516 134.977 93.0703 134.977C93.5807 134.977 94.013 134.872 94.3672 134.664C94.7214 134.456 95.0312 134.18 95.2969 133.836L96.1797 134.523C95.4714 135.612 94.4089 136.156 92.9922 136.156ZM92.8125 128.578C92.2292 128.578 91.7396 128.792 91.3438 129.219C90.9479 129.641 90.7031 130.234 90.6094 131H94.8438V130.891C94.8021 130.156 94.6042 129.589 94.25 129.188C93.8958 128.781 93.4167 128.578 92.8125 128.578ZM99.9297 125.5V127.547H101.508V128.664H99.9297V133.906C99.9297 134.245 100 134.5 100.141 134.672C100.281 134.839 100.521 134.922 100.859 134.922C101.026 134.922 101.255 134.891 101.547 134.828V136C101.167 136.104 100.797 136.156 100.438 136.156C99.7917 136.156 99.3047 135.961 98.9766 135.57C98.6484 135.18 98.4844 134.625 98.4844 133.906V128.664H96.9453V127.547H98.4844V125.5H99.9297ZM104.773 136H103.328V127.547H104.773V136ZM103.211 125.305C103.211 125.07 103.281 124.872 103.422 124.711C103.568 124.549 103.781 124.469 104.062 124.469C104.344 124.469 104.557 124.549 104.703 124.711C104.849 124.872 104.922 125.07 104.922 125.305C104.922 125.539 104.849 125.734 104.703 125.891C104.557 126.047 104.344 126.125 104.062 126.125C103.781 126.125 103.568 126.047 103.422 125.891C103.281 125.734 103.211 125.539 103.211 125.305ZM112.312 136C112.229 135.833 112.161 135.536 112.109 135.109C111.438 135.807 110.635 136.156 109.703 136.156C108.87 136.156 108.185 135.922 107.648 135.453C107.117 134.979 106.852 134.38 106.852 133.656C106.852 132.776 107.185 132.094 107.852 131.609C108.523 131.12 109.466 130.875 110.68 130.875H112.086V130.211C112.086 129.706 111.935 129.305 111.633 129.008C111.331 128.706 110.885 128.555 110.297 128.555C109.781 128.555 109.349 128.685 109 128.945C108.651 129.206 108.477 129.521 108.477 129.891H107.023C107.023 129.469 107.172 129.062 107.469 128.672C107.771 128.276 108.177 127.964 108.688 127.734C109.203 127.505 109.768 127.391 110.383 127.391C111.357 127.391 112.12 127.635 112.672 128.125C113.224 128.609 113.51 129.279 113.531 130.133V134.023C113.531 134.799 113.63 135.417 113.828 135.875V136H112.312ZM109.914 134.898C110.367 134.898 110.797 134.781 111.203 134.547C111.609 134.312 111.904 134.008 112.086 133.633V131.898H110.953C109.182 131.898 108.297 132.417 108.297 133.453C108.297 133.906 108.448 134.26 108.75 134.516C109.052 134.771 109.44 134.898 109.914 134.898ZM117.156 127.547L117.195 128.484C117.815 127.755 118.651 127.391 119.703 127.391C120.885 127.391 121.69 127.844 122.117 128.75C122.398 128.344 122.763 128.016 123.211 127.766C123.664 127.516 124.198 127.391 124.812 127.391C126.667 127.391 127.609 128.372 127.641 130.336V136H126.195V130.422C126.195 129.818 126.057 129.367 125.781 129.07C125.505 128.768 125.042 128.617 124.391 128.617C123.854 128.617 123.409 128.779 123.055 129.102C122.701 129.419 122.495 129.849 122.438 130.391V136H120.984V130.461C120.984 129.232 120.383 128.617 119.18 128.617C118.232 128.617 117.583 129.021 117.234 129.828V136H115.789V127.547H117.156ZM136.586 134.039L138.68 127.547H140.156L137.125 136H136.023L132.961 127.547H134.438L136.586 134.039ZM143.117 136H141.672V127.547H143.117V136ZM141.555 125.305C141.555 125.07 141.625 124.872 141.766 124.711C141.911 124.549 142.125 124.469 142.406 124.469C142.688 124.469 142.901 124.549 143.047 124.711C143.193 124.872 143.266 125.07 143.266 125.305C143.266 125.539 143.193 125.734 143.047 125.891C142.901 126.047 142.688 126.125 142.406 126.125C142.125 126.125 141.911 126.047 141.766 125.891C141.625 125.734 141.555 125.539 141.555 125.305ZM147.398 125.5V127.547H148.977V128.664H147.398V133.906C147.398 134.245 147.469 134.5 147.609 134.672C147.75 134.839 147.99 134.922 148.328 134.922C148.495 134.922 148.724 134.891 149.016 134.828V136C148.635 136.104 148.266 136.156 147.906 136.156C147.26 136.156 146.773 135.961 146.445 135.57C146.117 135.18 145.953 134.625 145.953 133.906V128.664H144.414V127.547H145.953V125.5H147.398ZM155.891 136C155.807 135.833 155.74 135.536 155.688 135.109C155.016 135.807 154.214 136.156 153.281 136.156C152.448 136.156 151.763 135.922 151.227 135.453C150.695 134.979 150.43 134.38 150.43 133.656C150.43 132.776 150.763 132.094 151.43 131.609C152.102 131.12 153.044 130.875 154.258 130.875H155.664V130.211C155.664 129.706 155.513 129.305 155.211 129.008C154.909 128.706 154.464 128.555 153.875 128.555C153.359 128.555 152.927 128.685 152.578 128.945C152.229 129.206 152.055 129.521 152.055 129.891H150.602C150.602 129.469 150.75 129.062 151.047 128.672C151.349 128.276 151.755 127.964 152.266 127.734C152.781 127.505 153.346 127.391 153.961 127.391C154.935 127.391 155.698 127.635 156.25 128.125C156.802 128.609 157.089 129.279 157.109 130.133V134.023C157.109 134.799 157.208 135.417 157.406 135.875V136H155.891ZM153.492 134.898C153.945 134.898 154.375 134.781 154.781 134.547C155.188 134.312 155.482 134.008 155.664 133.633V131.898H154.531C152.76 131.898 151.875 132.417 151.875 133.453C151.875 133.906 152.026 134.26 152.328 134.516C152.63 134.771 153.018 134.898 153.492 134.898ZM162.883 136.156C161.737 136.156 160.805 135.781 160.086 135.031C159.367 134.276 159.008 133.268 159.008 132.008V131.742C159.008 130.904 159.167 130.156 159.484 129.5C159.807 128.839 160.255 128.323 160.828 127.953C161.406 127.578 162.031 127.391 162.703 127.391C163.802 127.391 164.656 127.753 165.266 128.477C165.875 129.201 166.18 130.237 166.18 131.586V132.188H160.453C160.474 133.021 160.716 133.695 161.18 134.211C161.648 134.721 162.242 134.977 162.961 134.977C163.471 134.977 163.904 134.872 164.258 134.664C164.612 134.456 164.922 134.18 165.188 133.836L166.07 134.523C165.362 135.612 164.299 136.156 162.883 136.156ZM162.703 128.578C162.12 128.578 161.63 128.792 161.234 129.219C160.839 129.641 160.594 130.234 160.5 131H164.734V130.891C164.693 130.156 164.495 129.589 164.141 129.188C163.786 128.781 163.307 128.578 162.703 128.578ZM173.195 127.547L173.242 128.609C173.888 127.797 174.732 127.391 175.773 127.391C177.56 127.391 178.461 128.398 178.477 130.414V136H177.031V130.406C177.026 129.797 176.885 129.346 176.609 129.055C176.339 128.763 175.914 128.617 175.336 128.617C174.867 128.617 174.456 128.742 174.102 128.992C173.747 129.242 173.471 129.57 173.273 129.977V136H171.828V127.547H173.195ZM182.227 136H180.781V127.547H182.227V136ZM180.664 125.305C180.664 125.07 180.734 124.872 180.875 124.711C181.021 124.549 181.234 124.469 181.516 124.469C181.797 124.469 182.01 124.549 182.156 124.711C182.302 124.872 182.375 125.07 182.375 125.305C182.375 125.539 182.302 125.734 182.156 125.891C182.01 126.047 181.797 126.125 181.516 126.125C181.234 126.125 181.021 126.047 180.875 125.891C180.734 125.734 180.664 125.539 180.664 125.305ZM191.703 131.867C191.703 133.159 191.406 134.198 190.812 134.984C190.219 135.766 189.422 136.156 188.422 136.156C187.354 136.156 186.529 135.779 185.945 135.023L185.875 136H184.547V124H185.992V128.477C186.576 127.753 187.38 127.391 188.406 127.391C189.432 127.391 190.237 127.779 190.82 128.555C191.409 129.331 191.703 130.393 191.703 131.742V131.867ZM190.258 131.703C190.258 130.719 190.068 129.958 189.688 129.422C189.307 128.885 188.76 128.617 188.047 128.617C187.094 128.617 186.409 129.06 185.992 129.945V133.602C186.435 134.487 187.125 134.93 188.062 134.93C188.755 134.93 189.294 134.661 189.68 134.125C190.065 133.589 190.258 132.781 190.258 131.703ZM194.977 128.57C195.617 127.784 196.451 127.391 197.477 127.391C199.263 127.391 200.164 128.398 200.18 130.414V136H198.734V130.406C198.729 129.797 198.589 129.346 198.312 129.055C198.042 128.763 197.617 128.617 197.039 128.617C196.57 128.617 196.159 128.742 195.805 128.992C195.451 129.242 195.174 129.57 194.977 129.977V136H193.531V124H194.977V128.57ZM207.68 127.547L207.727 128.609C208.372 127.797 209.216 127.391 210.258 127.391C212.044 127.391 212.945 128.398 212.961 130.414V136H211.516V130.406C211.51 129.797 211.37 129.346 211.094 129.055C210.823 128.763 210.398 128.617 209.82 128.617C209.352 128.617 208.94 128.742 208.586 128.992C208.232 129.242 207.956 129.57 207.758 129.977V136H206.312V127.547H207.68ZM220.359 135.164C219.797 135.826 218.971 136.156 217.883 136.156C216.982 136.156 216.294 135.896 215.82 135.375C215.352 134.849 215.115 134.073 215.109 133.047V127.547H216.555V133.008C216.555 134.289 217.076 134.93 218.117 134.93C219.221 134.93 219.956 134.518 220.32 133.695V127.547H221.766V136H220.391L220.359 135.164ZM225.336 127.547L225.383 128.609C226.029 127.797 226.872 127.391 227.914 127.391C229.701 127.391 230.602 128.398 230.617 130.414V136H229.172V130.406C229.167 129.797 229.026 129.346 228.75 129.055C228.479 128.763 228.055 128.617 227.477 128.617C227.008 128.617 226.596 128.742 226.242 128.992C225.888 129.242 225.612 129.57 225.414 129.977V136H223.969V127.547H225.336ZM236.188 134.977C236.703 134.977 237.154 134.82 237.539 134.508C237.924 134.195 238.138 133.805 238.18 133.336H239.547C239.521 133.82 239.354 134.281 239.047 134.719C238.74 135.156 238.328 135.505 237.812 135.766C237.302 136.026 236.76 136.156 236.188 136.156C235.036 136.156 234.12 135.773 233.438 135.008C232.76 134.237 232.422 133.185 232.422 131.852V131.609C232.422 130.786 232.573 130.055 232.875 129.414C233.177 128.773 233.609 128.276 234.172 127.922C234.74 127.568 235.409 127.391 236.18 127.391C237.128 127.391 237.914 127.674 238.539 128.242C239.169 128.81 239.505 129.547 239.547 130.453H238.18C238.138 129.906 237.93 129.458 237.555 129.109C237.185 128.755 236.727 128.578 236.18 128.578C235.445 128.578 234.875 128.844 234.469 129.375C234.068 129.901 233.867 130.664 233.867 131.664V131.938C233.867 132.911 234.068 133.661 234.469 134.188C234.87 134.714 235.443 134.977 236.188 134.977ZM246.5 127.547L246.539 128.484C247.159 127.755 247.995 127.391 249.047 127.391C250.229 127.391 251.034 127.844 251.461 128.75C251.742 128.344 252.107 128.016 252.555 127.766C253.008 127.516 253.542 127.391 254.156 127.391C256.01 127.391 256.953 128.372 256.984 130.336V136H255.539V130.422C255.539 129.818 255.401 129.367 255.125 129.07C254.849 128.768 254.385 128.617 253.734 128.617C253.198 128.617 252.753 128.779 252.398 129.102C252.044 129.419 251.839 129.849 251.781 130.391V136H250.328V130.461C250.328 129.232 249.727 128.617 248.523 128.617C247.576 128.617 246.927 129.021 246.578 129.828V136H245.133V127.547H246.5ZM264.391 136C264.307 135.833 264.24 135.536 264.188 135.109C263.516 135.807 262.714 136.156 261.781 136.156C260.948 136.156 260.263 135.922 259.727 135.453C259.195 134.979 258.93 134.38 258.93 133.656C258.93 132.776 259.263 132.094 259.93 131.609C260.602 131.12 261.544 130.875 262.758 130.875H264.164V130.211C264.164 129.706 264.013 129.305 263.711 129.008C263.409 128.706 262.964 128.555 262.375 128.555C261.859 128.555 261.427 128.685 261.078 128.945C260.729 129.206 260.555 129.521 260.555 129.891H259.102C259.102 129.469 259.25 129.062 259.547 128.672C259.849 128.276 260.255 127.964 260.766 127.734C261.281 127.505 261.846 127.391 262.461 127.391C263.435 127.391 264.198 127.635 264.75 128.125C265.302 128.609 265.589 129.279 265.609 130.133V134.023C265.609 134.799 265.708 135.417 265.906 135.875V136H264.391ZM261.992 134.898C262.445 134.898 262.875 134.781 263.281 134.547C263.688 134.312 263.982 134.008 264.164 133.633V131.898H263.031C261.26 131.898 260.375 132.417 260.375 133.453C260.375 133.906 260.526 134.26 260.828 134.516C261.13 134.771 261.518 134.898 261.992 134.898ZM269.836 125.5V127.547H271.414V128.664H269.836V133.906C269.836 134.245 269.906 134.5 270.047 134.672C270.188 134.839 270.427 134.922 270.766 134.922C270.932 134.922 271.161 134.891 271.453 134.828V136C271.073 136.104 270.703 136.156 270.344 136.156C269.698 136.156 269.211 135.961 268.883 135.57C268.555 135.18 268.391 134.625 268.391 133.906V128.664H266.852V127.547H268.391V125.5H269.836ZM275.07 125.5V127.547H276.648V128.664H275.07V133.906C275.07 134.245 275.141 134.5 275.281 134.672C275.422 134.839 275.661 134.922 276 134.922C276.167 134.922 276.396 134.891 276.688 134.828V136C276.307 136.104 275.938 136.156 275.578 136.156C274.932 136.156 274.445 135.961 274.117 135.57C273.789 135.18 273.625 134.625 273.625 133.906V128.664H272.086V127.547H273.625V125.5H275.07ZM279.914 136H278.469V127.547H279.914V136ZM278.352 125.305C278.352 125.07 278.422 124.872 278.562 124.711C278.708 124.549 278.922 124.469 279.203 124.469C279.484 124.469 279.698 124.549 279.844 124.711C279.99 124.872 280.062 125.07 280.062 125.305C280.062 125.539 279.99 125.734 279.844 125.891C279.698 126.047 279.484 126.125 279.203 126.125C278.922 126.125 278.708 126.047 278.562 125.891C278.422 125.734 278.352 125.539 278.352 125.305ZM287.156 133.758C287.156 133.367 287.008 133.065 286.711 132.852C286.419 132.633 285.906 132.445 285.172 132.289C284.443 132.133 283.862 131.945 283.43 131.727C283.003 131.508 282.685 131.247 282.477 130.945C282.273 130.643 282.172 130.284 282.172 129.867C282.172 129.174 282.464 128.589 283.047 128.109C283.635 127.63 284.385 127.391 285.297 127.391C286.255 127.391 287.031 127.638 287.625 128.133C288.224 128.628 288.523 129.26 288.523 130.031H287.07C287.07 129.635 286.901 129.294 286.562 129.008C286.229 128.721 285.807 128.578 285.297 128.578C284.771 128.578 284.359 128.693 284.062 128.922C283.766 129.151 283.617 129.451 283.617 129.82C283.617 130.169 283.755 130.432 284.031 130.609C284.307 130.786 284.805 130.956 285.523 131.117C286.247 131.279 286.833 131.471 287.281 131.695C287.729 131.919 288.06 132.19 288.273 132.508C288.492 132.82 288.602 133.203 288.602 133.656C288.602 134.411 288.299 135.018 287.695 135.477C287.091 135.93 286.307 136.156 285.344 136.156C284.667 136.156 284.068 136.036 283.547 135.797C283.026 135.557 282.617 135.224 282.32 134.797C282.029 134.365 281.883 133.898 281.883 133.398H283.328C283.354 133.883 283.547 134.268 283.906 134.555C284.271 134.836 284.75 134.977 285.344 134.977C285.891 134.977 286.328 134.867 286.656 134.648C286.99 134.424 287.156 134.128 287.156 133.758ZM296.023 136H294.578V127.547H296.023V136ZM294.461 125.305C294.461 125.07 294.531 124.872 294.672 124.711C294.818 124.549 295.031 124.469 295.312 124.469C295.594 124.469 295.807 124.549 295.953 124.711C296.099 124.872 296.172 125.07 296.172 125.305C296.172 125.539 296.099 125.734 295.953 125.891C295.807 126.047 295.594 126.125 295.312 126.125C295.031 126.125 294.818 126.047 294.672 125.891C294.531 125.734 294.461 125.539 294.461 125.305ZM299.703 127.547L299.742 128.484C300.362 127.755 301.198 127.391 302.25 127.391C303.432 127.391 304.237 127.844 304.664 128.75C304.945 128.344 305.31 128.016 305.758 127.766C306.211 127.516 306.745 127.391 307.359 127.391C309.214 127.391 310.156 128.372 310.188 130.336V136H308.742V130.422C308.742 129.818 308.604 129.367 308.328 129.07C308.052 128.768 307.589 128.617 306.938 128.617C306.401 128.617 305.956 128.779 305.602 129.102C305.247 129.419 305.042 129.849 304.984 130.391V136H303.531V130.461C303.531 129.232 302.93 128.617 301.727 128.617C300.779 128.617 300.13 129.021 299.781 129.828V136H298.336V127.547H299.703ZM319.516 131.867C319.516 133.154 319.221 134.19 318.633 134.977C318.044 135.763 317.247 136.156 316.242 136.156C315.216 136.156 314.409 135.831 313.82 135.18V139.25H312.375V127.547H313.695L313.766 128.484C314.354 127.755 315.172 127.391 316.219 127.391C317.234 127.391 318.036 127.773 318.625 128.539C319.219 129.305 319.516 130.37 319.516 131.734V131.867ZM318.07 131.703C318.07 130.75 317.867 129.997 317.461 129.445C317.055 128.893 316.497 128.617 315.789 128.617C314.914 128.617 314.258 129.005 313.82 129.781V133.82C314.253 134.591 314.914 134.977 315.805 134.977C316.497 134.977 317.047 134.703 317.453 134.156C317.865 133.604 318.07 132.786 318.07 131.703ZM324.867 136.156C323.721 136.156 322.789 135.781 322.07 135.031C321.352 134.276 320.992 133.268 320.992 132.008V131.742C320.992 130.904 321.151 130.156 321.469 129.5C321.792 128.839 322.24 128.323 322.812 127.953C323.391 127.578 324.016 127.391 324.688 127.391C325.786 127.391 326.641 127.753 327.25 128.477C327.859 129.201 328.164 130.237 328.164 131.586V132.188H322.438C322.458 133.021 322.701 133.695 323.164 134.211C323.633 134.721 324.227 134.977 324.945 134.977C325.456 134.977 325.888 134.872 326.242 134.664C326.596 134.456 326.906 134.18 327.172 133.836L328.055 134.523C327.346 135.612 326.284 136.156 324.867 136.156ZM324.688 128.578C324.104 128.578 323.615 128.792 323.219 129.219C322.823 129.641 322.578 130.234 322.484 131H326.719V130.891C326.677 130.156 326.479 129.589 326.125 129.188C325.771 128.781 325.292 128.578 324.688 128.578ZM333.93 128.844C333.711 128.807 333.474 128.789 333.219 128.789C332.271 128.789 331.628 129.193 331.289 130V136H329.844V127.547H331.25L331.273 128.523C331.747 127.768 332.419 127.391 333.289 127.391C333.57 127.391 333.784 127.427 333.93 127.5V128.844ZM334.758 131.703C334.758 130.406 335.065 129.365 335.68 128.578C336.294 127.786 337.099 127.391 338.094 127.391C339.083 127.391 339.867 127.729 340.445 128.406V124H341.891V136H340.562L340.492 135.094C339.914 135.802 339.109 136.156 338.078 136.156C337.099 136.156 336.299 135.755 335.68 134.953C335.065 134.151 334.758 133.104 334.758 131.812V131.703ZM336.203 131.867C336.203 132.826 336.401 133.576 336.797 134.117C337.193 134.659 337.74 134.93 338.438 134.93C339.354 134.93 340.023 134.518 340.445 133.695V129.812C340.013 129.016 339.349 128.617 338.453 128.617C337.745 128.617 337.193 128.891 336.797 129.438C336.401 129.984 336.203 130.794 336.203 131.867ZM345.711 136H344.266V127.547H345.711V136ZM344.148 125.305C344.148 125.07 344.219 124.872 344.359 124.711C344.505 124.549 344.719 124.469 345 124.469C345.281 124.469 345.495 124.549 345.641 124.711C345.786 124.872 345.859 125.07 345.859 125.305C345.859 125.539 345.786 125.734 345.641 125.891C345.495 126.047 345.281 126.125 345 126.125C344.719 126.125 344.505 126.047 344.359 125.891C344.219 125.734 344.148 125.539 344.148 125.305ZM351.539 136.156C350.393 136.156 349.461 135.781 348.742 135.031C348.023 134.276 347.664 133.268 347.664 132.008V131.742C347.664 130.904 347.823 130.156 348.141 129.5C348.464 128.839 348.911 128.323 349.484 127.953C350.062 127.578 350.688 127.391 351.359 127.391C352.458 127.391 353.312 127.753 353.922 128.477C354.531 129.201 354.836 130.237 354.836 131.586V132.188H349.109C349.13 133.021 349.372 133.695 349.836 134.211C350.305 134.721 350.898 134.977 351.617 134.977C352.128 134.977 352.56 134.872 352.914 134.664C353.268 134.456 353.578 134.18 353.844 133.836L354.727 134.523C354.018 135.612 352.956 136.156 351.539 136.156ZM351.359 128.578C350.776 128.578 350.286 128.792 349.891 129.219C349.495 129.641 349.25 130.234 349.156 131H353.391V130.891C353.349 130.156 353.151 129.589 352.797 129.188C352.443 128.781 351.964 128.578 351.359 128.578ZM358.477 125.5V127.547H360.055V128.664H358.477V133.906C358.477 134.245 358.547 134.5 358.688 134.672C358.828 134.839 359.068 134.922 359.406 134.922C359.573 134.922 359.802 134.891 360.094 134.828V136C359.714 136.104 359.344 136.156 358.984 136.156C358.339 136.156 357.852 135.961 357.523 135.57C357.195 135.18 357.031 134.625 357.031 133.906V128.664H355.492V127.547H357.031V125.5H358.477ZM21.3047 155.758C21.3047 155.367 21.1562 155.065 20.8594 154.852C20.5677 154.633 20.0547 154.445 19.3203 154.289C18.5911 154.133 18.0104 153.945 17.5781 153.727C17.151 153.508 16.8333 153.247 16.625 152.945C16.4219 152.643 16.3203 152.284 16.3203 151.867C16.3203 151.174 16.612 150.589 17.1953 150.109C17.7839 149.63 18.5339 149.391 19.4453 149.391C20.4036 149.391 21.1797 149.638 21.7734 150.133C22.3724 150.628 22.6719 151.26 22.6719 152.031H21.2188C21.2188 151.635 21.0495 151.294 20.7109 151.008C20.3776 150.721 19.9557 150.578 19.4453 150.578C18.9193 150.578 18.5078 150.693 18.2109 150.922C17.9141 151.151 17.7656 151.451 17.7656 151.82C17.7656 152.169 17.9036 152.432 18.1797 152.609C18.4557 152.786 18.9531 152.956 19.6719 153.117C20.3958 153.279 20.9818 153.471 21.4297 153.695C21.8776 153.919 22.2083 154.19 22.4219 154.508C22.6406 154.82 22.75 155.203 22.75 155.656C22.75 156.411 22.4479 157.018 21.8438 157.477C21.2396 157.93 20.4557 158.156 19.4922 158.156C18.8151 158.156 18.2161 158.036 17.6953 157.797C17.1745 157.557 16.7656 157.224 16.4688 156.797C16.1771 156.365 16.0312 155.898 16.0312 155.398H17.4766C17.5026 155.883 17.6953 156.268 18.0547 156.555C18.4193 156.836 18.8984 156.977 19.4922 156.977C20.0391 156.977 20.4766 156.867 20.8047 156.648C21.138 156.424 21.3047 156.128 21.3047 155.758ZM28.1406 158.156C26.9948 158.156 26.0625 157.781 25.3438 157.031C24.625 156.276 24.2656 155.268 24.2656 154.008V153.742C24.2656 152.904 24.4245 152.156 24.7422 151.5C25.0651 150.839 25.513 150.323 26.0859 149.953C26.6641 149.578 27.2891 149.391 27.9609 149.391C29.0599 149.391 29.9141 149.753 30.5234 150.477C31.1328 151.201 31.4375 152.237 31.4375 153.586V154.188H25.7109C25.7318 155.021 25.974 155.695 26.4375 156.211C26.9062 156.721 27.5 156.977 28.2188 156.977C28.7292 156.977 29.1615 156.872 29.5156 156.664C29.8698 156.456 30.1797 156.18 30.4453 155.836L31.3281 156.523C30.6198 157.612 29.5573 158.156 28.1406 158.156ZM27.9609 150.578C27.3776 150.578 26.888 150.792 26.4922 151.219C26.0964 151.641 25.8516 152.234 25.7578 153H29.9922V152.891C29.9505 152.156 29.7526 151.589 29.3984 151.188C29.0443 150.781 28.5651 150.578 27.9609 150.578ZM32.7656 153.703C32.7656 152.406 33.0729 151.365 33.6875 150.578C34.3021 149.786 35.1068 149.391 36.1016 149.391C37.0911 149.391 37.875 149.729 38.4531 150.406V146H39.8984V158H38.5703L38.5 157.094C37.9219 157.802 37.1172 158.156 36.0859 158.156C35.1068 158.156 34.3073 157.755 33.6875 156.953C33.0729 156.151 32.7656 155.104 32.7656 153.812V153.703ZM34.2109 153.867C34.2109 154.826 34.4089 155.576 34.8047 156.117C35.2005 156.659 35.7474 156.93 36.4453 156.93C37.362 156.93 38.0312 156.518 38.4531 155.695V151.812C38.0208 151.016 37.3568 150.617 36.4609 150.617C35.7526 150.617 35.2005 150.891 34.8047 151.438C34.4089 151.984 34.2109 152.794 34.2109 153.867ZM47.4844 149.547L47.5312 150.609C48.1771 149.797 49.0208 149.391 50.0625 149.391C51.849 149.391 52.75 150.398 52.7656 152.414V158H51.3203V152.406C51.3151 151.797 51.1745 151.346 50.8984 151.055C50.6276 150.763 50.2031 150.617 49.625 150.617C49.1562 150.617 48.7448 150.742 48.3906 150.992C48.0365 151.242 47.7604 151.57 47.5625 151.977V158H46.1172V149.547H47.4844ZM60.1641 157.164C59.6016 157.826 58.776 158.156 57.6875 158.156C56.7865 158.156 56.099 157.896 55.625 157.375C55.1562 156.849 54.9193 156.073 54.9141 155.047V149.547H56.3594V155.008C56.3594 156.289 56.8802 156.93 57.9219 156.93C59.026 156.93 59.7604 156.518 60.125 155.695V149.547H61.5703V158H60.1953L60.1641 157.164ZM65.3438 158H63.8984V146H65.3438V158ZM69.2344 158H67.7891V146H69.2344V158ZM76.7734 158C76.6901 157.833 76.6224 157.536 76.5703 157.109C75.8984 157.807 75.0964 158.156 74.1641 158.156C73.3307 158.156 72.6458 157.922 72.1094 157.453C71.5781 156.979 71.3125 156.38 71.3125 155.656C71.3125 154.776 71.6458 154.094 72.3125 153.609C72.9844 153.12 73.9271 152.875 75.1406 152.875H76.5469V152.211C76.5469 151.706 76.3958 151.305 76.0938 151.008C75.7917 150.706 75.3464 150.555 74.7578 150.555C74.2422 150.555 73.8099 150.685 73.4609 150.945C73.112 151.206 72.9375 151.521 72.9375 151.891H71.4844C71.4844 151.469 71.6328 151.062 71.9297 150.672C72.2318 150.276 72.638 149.964 73.1484 149.734C73.6641 149.505 74.2292 149.391 74.8438 149.391C75.8177 149.391 76.5807 149.635 77.1328 150.125C77.6849 150.609 77.9714 151.279 77.9922 152.133V156.023C77.9922 156.799 78.0911 157.417 78.2891 157.875V158H76.7734ZM74.375 156.898C74.8281 156.898 75.2578 156.781 75.6641 156.547C76.0703 156.312 76.3646 156.008 76.5469 155.633V153.898H75.4141C73.6432 153.898 72.7578 154.417 72.7578 155.453C72.7578 155.906 72.9089 156.26 73.2109 156.516C73.513 156.771 73.901 156.898 74.375 156.898ZM81.6172 149.547L81.6562 150.484C82.276 149.755 83.112 149.391 84.1641 149.391C85.3464 149.391 86.151 149.844 86.5781 150.75C86.8594 150.344 87.224 150.016 87.6719 149.766C88.125 149.516 88.6589 149.391 89.2734 149.391C91.1276 149.391 92.0703 150.372 92.1016 152.336V158H90.6562V152.422C90.6562 151.818 90.5182 151.367 90.2422 151.07C89.9661 150.768 89.5026 150.617 88.8516 150.617C88.3151 150.617 87.8698 150.779 87.5156 151.102C87.1615 151.419 86.9557 151.849 86.8984 152.391V158H85.4453V152.461C85.4453 151.232 84.8438 150.617 83.6406 150.617C82.6927 150.617 82.0443 151.021 81.6953 151.828V158H80.25V149.547H81.6172ZM94.3203 157.242C94.3203 156.992 94.3932 156.784 94.5391 156.617C94.6901 156.451 94.9141 156.367 95.2109 156.367C95.5078 156.367 95.7318 156.451 95.8828 156.617C96.0391 156.784 96.1172 156.992 96.1172 157.242C96.1172 157.482 96.0391 157.682 95.8828 157.844C95.7318 158.005 95.5078 158.086 95.2109 158.086C94.9141 158.086 94.6901 158.005 94.5391 157.844C94.3932 157.682 94.3203 157.482 94.3203 157.242ZM106.469 156.008L109.719 146.625H111.359L107.141 158H105.812L101.602 146.625H103.234L106.469 156.008ZM114.234 158H112.789V149.547H114.234V158ZM112.672 147.305C112.672 147.07 112.742 146.872 112.883 146.711C113.029 146.549 113.242 146.469 113.523 146.469C113.805 146.469 114.018 146.549 114.164 146.711C114.31 146.872 114.383 147.07 114.383 147.305C114.383 147.539 114.31 147.734 114.164 147.891C114.018 148.047 113.805 148.125 113.523 148.125C113.242 148.125 113.029 148.047 112.883 147.891C112.742 147.734 112.672 147.539 112.672 147.305ZM118.516 147.5V149.547H120.094V150.664H118.516V155.906C118.516 156.245 118.586 156.5 118.727 156.672C118.867 156.839 119.107 156.922 119.445 156.922C119.612 156.922 119.841 156.891 120.133 156.828V158C119.753 158.104 119.383 158.156 119.023 158.156C118.378 158.156 117.891 157.961 117.562 157.57C117.234 157.18 117.07 156.625 117.07 155.906V150.664H115.531V149.547H117.07V147.5H118.516ZM127.008 158C126.924 157.833 126.857 157.536 126.805 157.109C126.133 157.807 125.331 158.156 124.398 158.156C123.565 158.156 122.88 157.922 122.344 157.453C121.812 156.979 121.547 156.38 121.547 155.656C121.547 154.776 121.88 154.094 122.547 153.609C123.219 153.12 124.161 152.875 125.375 152.875H126.781V152.211C126.781 151.706 126.63 151.305 126.328 151.008C126.026 150.706 125.581 150.555 124.992 150.555C124.477 150.555 124.044 150.685 123.695 150.945C123.346 151.206 123.172 151.521 123.172 151.891H121.719C121.719 151.469 121.867 151.062 122.164 150.672C122.466 150.276 122.872 149.964 123.383 149.734C123.898 149.505 124.464 149.391 125.078 149.391C126.052 149.391 126.815 149.635 127.367 150.125C127.919 150.609 128.206 151.279 128.227 152.133V156.023C128.227 156.799 128.326 157.417 128.523 157.875V158H127.008ZM124.609 156.898C125.062 156.898 125.492 156.781 125.898 156.547C126.305 156.312 126.599 156.008 126.781 155.633V153.898H125.648C123.878 153.898 122.992 154.417 122.992 155.453C122.992 155.906 123.143 156.26 123.445 156.516C123.747 156.771 124.135 156.898 124.609 156.898ZM134 158.156C132.854 158.156 131.922 157.781 131.203 157.031C130.484 156.276 130.125 155.268 130.125 154.008V153.742C130.125 152.904 130.284 152.156 130.602 151.5C130.924 150.839 131.372 150.323 131.945 149.953C132.523 149.578 133.148 149.391 133.82 149.391C134.919 149.391 135.773 149.753 136.383 150.477C136.992 151.201 137.297 152.237 137.297 153.586V154.188H131.57C131.591 155.021 131.833 155.695 132.297 156.211C132.766 156.721 133.359 156.977 134.078 156.977C134.589 156.977 135.021 156.872 135.375 156.664C135.729 156.456 136.039 156.18 136.305 155.836L137.188 156.523C136.479 157.612 135.417 158.156 134 158.156ZM133.82 150.578C133.237 150.578 132.747 150.792 132.352 151.219C131.956 151.641 131.711 152.234 131.617 153H135.852V152.891C135.81 152.156 135.612 151.589 135.258 151.188C134.904 150.781 134.424 150.578 133.82 150.578ZM146.453 158.156C145.307 158.156 144.375 157.781 143.656 157.031C142.938 156.276 142.578 155.268 142.578 154.008V153.742C142.578 152.904 142.737 152.156 143.055 151.5C143.378 150.839 143.826 150.323 144.398 149.953C144.977 149.578 145.602 149.391 146.273 149.391C147.372 149.391 148.227 149.753 148.836 150.477C149.445 151.201 149.75 152.237 149.75 153.586V154.188H144.023C144.044 155.021 144.286 155.695 144.75 156.211C145.219 156.721 145.812 156.977 146.531 156.977C147.042 156.977 147.474 156.872 147.828 156.664C148.182 156.456 148.492 156.18 148.758 155.836L149.641 156.523C148.932 157.612 147.87 158.156 146.453 158.156ZM146.273 150.578C145.69 150.578 145.201 150.792 144.805 151.219C144.409 151.641 144.164 152.234 144.07 153H148.305V152.891C148.263 152.156 148.065 151.589 147.711 151.188C147.357 150.781 146.878 150.578 146.273 150.578ZM153.391 147.5V149.547H154.969V150.664H153.391V155.906C153.391 156.245 153.461 156.5 153.602 156.672C153.742 156.839 153.982 156.922 154.32 156.922C154.487 156.922 154.716 156.891 155.008 156.828V158C154.628 158.104 154.258 158.156 153.898 158.156C153.253 158.156 152.766 157.961 152.438 157.57C152.109 157.18 151.945 156.625 151.945 155.906V150.664H150.406V149.547H151.945V147.5H153.391ZM156.617 160.266L155.797 159.703C156.286 159.021 156.542 158.318 156.562 157.594V156.289H157.977V157.422C157.977 157.948 157.846 158.474 157.586 159C157.331 159.526 157.008 159.948 156.617 160.266ZM165.734 147.5V149.547H167.312V150.664H165.734V155.906C165.734 156.245 165.805 156.5 165.945 156.672C166.086 156.839 166.326 156.922 166.664 156.922C166.831 156.922 167.06 156.891 167.352 156.828V158C166.971 158.104 166.602 158.156 166.242 158.156C165.596 158.156 165.109 157.961 164.781 157.57C164.453 157.18 164.289 156.625 164.289 155.906V150.664H162.75V149.547H164.289V147.5H165.734ZM168.469 153.695C168.469 152.867 168.63 152.122 168.953 151.461C169.281 150.799 169.734 150.289 170.312 149.93C170.896 149.57 171.56 149.391 172.305 149.391C173.456 149.391 174.385 149.789 175.094 150.586C175.807 151.383 176.164 152.443 176.164 153.766V153.867C176.164 154.69 176.005 155.43 175.688 156.086C175.375 156.737 174.924 157.245 174.336 157.609C173.753 157.974 173.081 158.156 172.32 158.156C171.174 158.156 170.245 157.758 169.531 156.961C168.823 156.164 168.469 155.109 168.469 153.797V153.695ZM169.922 153.867C169.922 154.805 170.138 155.557 170.57 156.125C171.008 156.693 171.591 156.977 172.32 156.977C173.055 156.977 173.638 156.69 174.07 156.117C174.503 155.539 174.719 154.732 174.719 153.695C174.719 152.768 174.497 152.018 174.055 151.445C173.617 150.867 173.034 150.578 172.305 150.578C171.591 150.578 171.016 150.862 170.578 151.43C170.141 151.997 169.922 152.81 169.922 153.867ZM182.062 150.844C181.844 150.807 181.607 150.789 181.352 150.789C180.404 150.789 179.76 151.193 179.422 152V158H177.977V149.547H179.383L179.406 150.523C179.88 149.768 180.552 149.391 181.422 149.391C181.703 149.391 181.917 149.427 182.062 149.5V150.844ZM185.75 147.5V149.547H187.328V150.664H185.75V155.906C185.75 156.245 185.82 156.5 185.961 156.672C186.102 156.839 186.341 156.922 186.68 156.922C186.846 156.922 187.076 156.891 187.367 156.828V158C186.987 158.104 186.617 158.156 186.258 158.156C185.612 158.156 185.125 157.961 184.797 157.57C184.469 157.18 184.305 156.625 184.305 155.906V150.664H182.766V149.547H184.305V147.5H185.75ZM188.484 153.695C188.484 152.867 188.646 152.122 188.969 151.461C189.297 150.799 189.75 150.289 190.328 149.93C190.911 149.57 191.576 149.391 192.32 149.391C193.471 149.391 194.401 149.789 195.109 150.586C195.823 151.383 196.18 152.443 196.18 153.766V153.867C196.18 154.69 196.021 155.43 195.703 156.086C195.391 156.737 194.94 157.245 194.352 157.609C193.768 157.974 193.096 158.156 192.336 158.156C191.19 158.156 190.26 157.758 189.547 156.961C188.839 156.164 188.484 155.109 188.484 153.797V153.695ZM189.938 153.867C189.938 154.805 190.154 155.557 190.586 156.125C191.023 156.693 191.607 156.977 192.336 156.977C193.07 156.977 193.654 156.69 194.086 156.117C194.518 155.539 194.734 154.732 194.734 153.695C194.734 152.768 194.513 152.018 194.07 151.445C193.633 150.867 193.049 150.578 192.32 150.578C191.607 150.578 191.031 150.862 190.594 151.43C190.156 151.997 189.938 152.81 189.938 153.867ZM202.078 150.844C201.859 150.807 201.622 150.789 201.367 150.789C200.419 150.789 199.776 151.193 199.438 152V158H197.992V149.547H199.398L199.422 150.523C199.896 149.768 200.568 149.391 201.438 149.391C201.719 149.391 201.932 149.427 202.078 149.5V150.844ZM214.523 153.867C214.523 155.154 214.229 156.19 213.641 156.977C213.052 157.763 212.255 158.156 211.25 158.156C210.224 158.156 209.417 157.831 208.828 157.18V161.25H207.383V149.547H208.703L208.773 150.484C209.362 149.755 210.18 149.391 211.227 149.391C212.242 149.391 213.044 149.773 213.633 150.539C214.227 151.305 214.523 152.37 214.523 153.734V153.867ZM213.078 153.703C213.078 152.75 212.875 151.997 212.469 151.445C212.062 150.893 211.505 150.617 210.797 150.617C209.922 150.617 209.266 151.005 208.828 151.781V155.82C209.26 156.591 209.922 156.977 210.812 156.977C211.505 156.977 212.055 156.703 212.461 156.156C212.872 155.604 213.078 154.786 213.078 153.703ZM221.586 157.164C221.023 157.826 220.198 158.156 219.109 158.156C218.208 158.156 217.521 157.896 217.047 157.375C216.578 156.849 216.341 156.073 216.336 155.047V149.547H217.781V155.008C217.781 156.289 218.302 156.93 219.344 156.93C220.448 156.93 221.182 156.518 221.547 155.695V149.547H222.992V158H221.617L221.586 157.164ZM226.766 158H225.32V146H226.766V158ZM231.875 156.039L233.969 149.547H235.445L232.414 158H231.312L228.25 149.547H229.727L231.875 156.039ZM238.406 158H236.961V149.547H238.406V158ZM236.844 147.305C236.844 147.07 236.914 146.872 237.055 146.711C237.201 146.549 237.414 146.469 237.695 146.469C237.977 146.469 238.19 146.549 238.336 146.711C238.482 146.872 238.555 147.07 238.555 147.305C238.555 147.539 238.482 147.734 238.336 147.891C238.19 148.047 237.977 148.125 237.695 148.125C237.414 148.125 237.201 148.047 237.055 147.891C236.914 147.734 236.844 147.539 236.844 147.305ZM242.094 149.547L242.141 150.609C242.786 149.797 243.63 149.391 244.672 149.391C246.458 149.391 247.359 150.398 247.375 152.414V158H245.93V152.406C245.924 151.797 245.784 151.346 245.508 151.055C245.237 150.763 244.812 150.617 244.234 150.617C243.766 150.617 243.354 150.742 243 150.992C242.646 151.242 242.37 151.57 242.172 151.977V158H240.727V149.547H242.094ZM254.773 158C254.69 157.833 254.622 157.536 254.57 157.109C253.898 157.807 253.096 158.156 252.164 158.156C251.331 158.156 250.646 157.922 250.109 157.453C249.578 156.979 249.312 156.38 249.312 155.656C249.312 154.776 249.646 154.094 250.312 153.609C250.984 153.12 251.927 152.875 253.141 152.875H254.547V152.211C254.547 151.706 254.396 151.305 254.094 151.008C253.792 150.706 253.346 150.555 252.758 150.555C252.242 150.555 251.81 150.685 251.461 150.945C251.112 151.206 250.938 151.521 250.938 151.891H249.484C249.484 151.469 249.633 151.062 249.93 150.672C250.232 150.276 250.638 149.964 251.148 149.734C251.664 149.505 252.229 149.391 252.844 149.391C253.818 149.391 254.581 149.635 255.133 150.125C255.685 150.609 255.971 151.279 255.992 152.133V156.023C255.992 156.799 256.091 157.417 256.289 157.875V158H254.773ZM252.375 156.898C252.828 156.898 253.258 156.781 253.664 156.547C254.07 156.312 254.365 156.008 254.547 155.633V153.898H253.414C251.643 153.898 250.758 154.417 250.758 155.453C250.758 155.906 250.909 156.26 251.211 156.516C251.513 156.771 251.901 156.898 252.375 156.898ZM262.344 150.844C262.125 150.807 261.888 150.789 261.633 150.789C260.685 150.789 260.042 151.193 259.703 152V158H258.258V149.547H259.664L259.688 150.523C260.161 149.768 260.833 149.391 261.703 149.391C261.984 149.391 262.198 149.427 262.344 149.5V150.844ZM271.734 150.844C271.516 150.807 271.279 150.789 271.023 150.789C270.076 150.789 269.432 151.193 269.094 152V158H267.648V149.547H269.055L269.078 150.523C269.552 149.768 270.224 149.391 271.094 149.391C271.375 149.391 271.589 149.427 271.734 149.5V150.844ZM274.641 158H273.195V149.547H274.641V158ZM273.078 147.305C273.078 147.07 273.148 146.872 273.289 146.711C273.435 146.549 273.648 146.469 273.93 146.469C274.211 146.469 274.424 146.549 274.57 146.711C274.716 146.872 274.789 147.07 274.789 147.305C274.789 147.539 274.716 147.734 274.57 147.891C274.424 148.047 274.211 148.125 273.93 148.125C273.648 148.125 273.435 148.047 273.289 147.891C273.148 147.734 273.078 147.539 273.078 147.305ZM281.883 155.758C281.883 155.367 281.734 155.065 281.438 154.852C281.146 154.633 280.633 154.445 279.898 154.289C279.169 154.133 278.589 153.945 278.156 153.727C277.729 153.508 277.411 153.247 277.203 152.945C277 152.643 276.898 152.284 276.898 151.867C276.898 151.174 277.19 150.589 277.773 150.109C278.362 149.63 279.112 149.391 280.023 149.391C280.982 149.391 281.758 149.638 282.352 150.133C282.951 150.628 283.25 151.26 283.25 152.031H281.797C281.797 151.635 281.628 151.294 281.289 151.008C280.956 150.721 280.534 150.578 280.023 150.578C279.497 150.578 279.086 150.693 278.789 150.922C278.492 151.151 278.344 151.451 278.344 151.82C278.344 152.169 278.482 152.432 278.758 152.609C279.034 152.786 279.531 152.956 280.25 153.117C280.974 153.279 281.56 153.471 282.008 153.695C282.456 153.919 282.786 154.19 283 154.508C283.219 154.82 283.328 155.203 283.328 155.656C283.328 156.411 283.026 157.018 282.422 157.477C281.818 157.93 281.034 158.156 280.07 158.156C279.393 158.156 278.794 158.036 278.273 157.797C277.753 157.557 277.344 157.224 277.047 156.797C276.755 156.365 276.609 155.898 276.609 155.398H278.055C278.081 155.883 278.273 156.268 278.633 156.555C278.997 156.836 279.477 156.977 280.07 156.977C280.617 156.977 281.055 156.867 281.383 156.648C281.716 156.424 281.883 156.128 281.883 155.758ZM290.43 157.164C289.867 157.826 289.042 158.156 287.953 158.156C287.052 158.156 286.365 157.896 285.891 157.375C285.422 156.849 285.185 156.073 285.18 155.047V149.547H286.625V155.008C286.625 156.289 287.146 156.93 288.188 156.93C289.292 156.93 290.026 156.518 290.391 155.695V149.547H291.836V158H290.461L290.43 157.164ZM298.961 155.758C298.961 155.367 298.812 155.065 298.516 154.852C298.224 154.633 297.711 154.445 296.977 154.289C296.247 154.133 295.667 153.945 295.234 153.727C294.807 153.508 294.49 153.247 294.281 152.945C294.078 152.643 293.977 152.284 293.977 151.867C293.977 151.174 294.268 150.589 294.852 150.109C295.44 149.63 296.19 149.391 297.102 149.391C298.06 149.391 298.836 149.638 299.43 150.133C300.029 150.628 300.328 151.26 300.328 152.031H298.875C298.875 151.635 298.706 151.294 298.367 151.008C298.034 150.721 297.612 150.578 297.102 150.578C296.576 150.578 296.164 150.693 295.867 150.922C295.57 151.151 295.422 151.451 295.422 151.82C295.422 152.169 295.56 152.432 295.836 152.609C296.112 152.786 296.609 152.956 297.328 153.117C298.052 153.279 298.638 153.471 299.086 153.695C299.534 153.919 299.865 154.19 300.078 154.508C300.297 154.82 300.406 155.203 300.406 155.656C300.406 156.411 300.104 157.018 299.5 157.477C298.896 157.93 298.112 158.156 297.148 158.156C296.471 158.156 295.872 158.036 295.352 157.797C294.831 157.557 294.422 157.224 294.125 156.797C293.833 156.365 293.688 155.898 293.688 155.398H295.133C295.159 155.883 295.352 156.268 295.711 156.555C296.076 156.836 296.555 156.977 297.148 156.977C297.695 156.977 298.133 156.867 298.461 156.648C298.794 156.424 298.961 156.128 298.961 155.758ZM313.398 153.867C313.398 155.154 313.104 156.19 312.516 156.977C311.927 157.763 311.13 158.156 310.125 158.156C309.099 158.156 308.292 157.831 307.703 157.18V161.25H306.258V149.547H307.578L307.648 150.484C308.237 149.755 309.055 149.391 310.102 149.391C311.117 149.391 311.919 149.773 312.508 150.539C313.102 151.305 313.398 152.37 313.398 153.734V153.867ZM311.953 153.703C311.953 152.75 311.75 151.997 311.344 151.445C310.938 150.893 310.38 150.617 309.672 150.617C308.797 150.617 308.141 151.005 307.703 151.781V155.82C308.135 156.591 308.797 156.977 309.688 156.977C310.38 156.977 310.93 156.703 311.336 156.156C311.747 155.604 311.953 154.786 311.953 153.703ZM320.461 157.164C319.898 157.826 319.073 158.156 317.984 158.156C317.083 158.156 316.396 157.896 315.922 157.375C315.453 156.849 315.216 156.073 315.211 155.047V149.547H316.656V155.008C316.656 156.289 317.177 156.93 318.219 156.93C319.323 156.93 320.057 156.518 320.422 155.695V149.547H321.867V158H320.492L320.461 157.164ZM325.641 158H324.195V146H325.641V158ZM330.75 156.039L332.844 149.547H334.32L331.289 158H330.188L327.125 149.547H328.602L330.75 156.039ZM337.281 158H335.836V149.547H337.281V158ZM335.719 147.305C335.719 147.07 335.789 146.872 335.93 146.711C336.076 146.549 336.289 146.469 336.57 146.469C336.852 146.469 337.065 146.549 337.211 146.711C337.357 146.872 337.43 147.07 337.43 147.305C337.43 147.539 337.357 147.734 337.211 147.891C337.065 148.047 336.852 148.125 336.57 148.125C336.289 148.125 336.076 148.047 335.93 147.891C335.789 147.734 335.719 147.539 335.719 147.305ZM340.969 149.547L341.016 150.609C341.661 149.797 342.505 149.391 343.547 149.391C345.333 149.391 346.234 150.398 346.25 152.414V158H344.805V152.406C344.799 151.797 344.659 151.346 344.383 151.055C344.112 150.763 343.688 150.617 343.109 150.617C342.641 150.617 342.229 150.742 341.875 150.992C341.521 151.242 341.245 151.57 341.047 151.977V158H339.602V149.547H340.969ZM353.648 158C353.565 157.833 353.497 157.536 353.445 157.109C352.773 157.807 351.971 158.156 351.039 158.156C350.206 158.156 349.521 157.922 348.984 157.453C348.453 156.979 348.188 156.38 348.188 155.656C348.188 154.776 348.521 154.094 349.188 153.609C349.859 153.12 350.802 152.875 352.016 152.875H353.422V152.211C353.422 151.706 353.271 151.305 352.969 151.008C352.667 150.706 352.221 150.555 351.633 150.555C351.117 150.555 350.685 150.685 350.336 150.945C349.987 151.206 349.812 151.521 349.812 151.891H348.359C348.359 151.469 348.508 151.062 348.805 150.672C349.107 150.276 349.513 149.964 350.023 149.734C350.539 149.505 351.104 149.391 351.719 149.391C352.693 149.391 353.456 149.635 354.008 150.125C354.56 150.609 354.846 151.279 354.867 152.133V156.023C354.867 156.799 354.966 157.417 355.164 157.875V158H353.648ZM351.25 156.898C351.703 156.898 352.133 156.781 352.539 156.547C352.945 156.312 353.24 156.008 353.422 155.633V153.898H352.289C350.518 153.898 349.633 154.417 349.633 155.453C349.633 155.906 349.784 156.26 350.086 156.516C350.388 156.771 350.776 156.898 351.25 156.898ZM361.219 150.844C361 150.807 360.763 150.789 360.508 150.789C359.56 150.789 358.917 151.193 358.578 152V158H357.133V149.547H358.539L358.562 150.523C359.036 149.768 359.708 149.391 360.578 149.391C360.859 149.391 361.073 149.427 361.219 149.5V150.844ZM361.617 157.242C361.617 156.992 361.69 156.784 361.836 156.617C361.987 156.451 362.211 156.367 362.508 156.367C362.805 156.367 363.029 156.451 363.18 156.617C363.336 156.784 363.414 156.992 363.414 157.242C363.414 157.482 363.336 157.682 363.18 157.844C363.029 158.005 362.805 158.086 362.508 158.086C362.211 158.086 361.987 158.005 361.836 157.844C361.69 157.682 361.617 157.482 361.617 157.242Z" fill="#8794BA"/>
<g clip-path="url(#clip0_1_268)">
<path d="M193 41H187C186.448 41 186 41.448 186 42C186 42.5519 186.448 43 187 43H193C193.552 43 194 42.5519 194 42C194 41.448 193.552 41 193 41Z" fill="#EF2A82"/>
<path d="M215.999 1H164.001C161.795 1 160 2.79508 160 5.00102V38C160 38.5519 160.448 38.9999 161 38.9999H219C219.552 38.9999 220 38.5519 220 38V5.00102C220 2.79508 218.205 1 215.999 1ZM218 37H162V5.00102C162 3.89699 162.898 3.00004 164.001 3.00004H215.999C217.102 3.00004 218 3.89699 218 5.00102V37Z" fill="#EF2A82"/>
<path d="M219 36.9999H161C160.448 36.9999 160 37.448 160 38V42.9989C160 45.2049 161.795 46.9999 164.001 46.9999H215.999C218.205 46.9999 220 45.2049 220 42.9989L220 38C220 37.448 219.552 36.9999 219 36.9999ZM218 42.999C218 44.103 217.102 45 215.999 45H164.001C162.898 45 162 44.103 162 42.999V39H218L218 42.999Z" fill="#EF2A82"/>
<path d="M215 5.00005H165C164.448 5.00005 164 5.44806 164 6.00001V38C164 38.552 164.448 39 165 39H215C215.552 39 216 38.552 216 38V6.00001C216 5.44806 215.552 5.00005 215 5.00005ZM214 37H166V6.99997H214V37Z" fill="#EF2A82"/>
<path d="M203 53.0001H177C175.346 53.0001 174 54.3461 174 56.0001C174 57.6541 175.346 59.0001 177 59.0001H203C204.654 59.0001 206 57.6541 206 56.0001C206 54.3461 204.654 53.0001 203 53.0001ZM203 57H177C176.448 57 176 56.5511 176 56.0001C176 55.4491 176.448 55.0001 177 55.0001H203C203.552 55.0001 204 55.4491 204 56.0001C204 56.5511 203.552 57 203 57Z" fill="#EF2A82"/>
<path d="M201 53.0001C197.682 53.0001 196 50.6451 196 46.0001C196 45.4482 195.552 45.0001 195 45.0001H185C184.448 45.0001 184 45.4482 184 46.0001C184 50.6451 182.318 53.0001 179 53.0001C178.448 53.0001 178 53.4481 178 54C178 54.552 178.448 55 179 55H201C201.552 55 202 54.552 202 54C202 53.4481 201.552 53.0001 201 53.0001ZM183.871 53.0001C185.102 51.6361 185.827 49.605 185.973 47.0001H194.028C194.173 49.605 194.898 51.6361 196.13 53.0001H183.871Z" fill="#EF2A82"/>
<path d="M207.784 30.464L205.37 28.05L206.713 26.707C206.962 26.458 207.062 26.096 206.976 25.755C206.89 25.414 206.631 25.144 206.294 25.042L196.294 22.042C195.941 21.936 195.56 22.033 195.3 22.2931C195.039 22.5531 194.943 22.935 195.049 23.287L198.049 33.287C198.15 33.625 198.421 33.884 198.762 33.97C199.102 34.054 199.465 33.9559 199.714 33.707L201.128 32.292L203.542 34.707C203.729 34.8949 203.984 34.9999 204.249 34.9999C204.514 34.9999 204.769 34.8949 204.956 34.707L207.784 31.8779C208.175 31.487 208.175 30.855 207.784 30.464ZM204.249 32.586L202.051 30.387C201.796 30.132 201.462 30.0049 201.128 30.0049C200.793 30.0049 200.459 30.1329 200.205 30.3859L199.483 31.1079L197.498 24.4909L204.115 26.4759L203.341 27.25C203.128 27.464 203.011 27.748 203.011 28.05C203.011 28.3531 203.129 28.639 203.343 28.851L205.663 31.1709L204.249 32.586Z" fill="#EF2A82"/>
<path d="M202 8.99997H174C173.448 8.99997 173 9.44798 173 9.99993V15C173 15.5519 173.448 15.9999 174 15.9999H202C202.552 15.9999 203 15.5519 203 15V9.99993C203 9.44798 202.552 8.99997 202 8.99997ZM201 14H175V11H201V14Z" fill="#EF2A82"/>
<path d="M186 20.0001H178C177.448 20.0001 177 20.4481 177 21V25C177 25.5519 177.448 25.9999 178 25.9999H186C186.552 25.9999 187 25.5519 187 25V21C187 20.4481 186.552 20.0001 186 20.0001ZM185 24H179V22H185V24Z" fill="#EF2A82"/>
<path d="M202 8.99997H174C173.448 8.99997 173 9.44798 173 9.99993V28.9999C173 29.5518 173.448 29.9999 174 29.9999H197.806C198.123 29.9999 198.42 29.8509 198.608 29.5968C198.797 29.3429 198.855 29.0149 198.764 28.7118L197.498 24.4909L201.713 25.7559C202.016 25.847 202.344 25.789 202.597 25.5999C202.851 25.412 203 25.114 203 24.7979L203 9.99993C203 9.44798 202.552 8.99997 202 8.99997ZM201 23.454L196.293 22.042C195.94 21.9359 195.559 22.033 195.299 22.293C195.038 22.554 194.942 22.935 195.048 23.2881L196.462 28H175V11H201V23.454Z" fill="#EF2A82"/>
</g>
<defs>
<clipPath id="clip0_1_268">
<rect width="60" height="60" fill="white" transform="translate(160)"/>
</clipPath>
</defs>
</svg>
