<svg width="380" height="164" viewBox="0 0 380 164" fill="none" xmlns="http://www.w3.org/2000/svg">
<path d="M136.461 89.625L139.383 97.875L142.289 89.625H145.367V101H143.016V97.8906L143.25 92.5234L140.18 101H138.57L135.508 92.5312L135.742 97.8906V101H133.398V89.625H136.461ZM146.914 96.6953C146.914 95.8568 147.076 95.1094 147.398 94.4531C147.721 93.7969 148.185 93.2891 148.789 92.9297C149.398 92.5703 150.104 92.3906 150.906 92.3906C152.047 92.3906 152.977 92.7396 153.695 93.4375C154.419 94.1354 154.823 95.0833 154.906 96.2812L154.922 96.8594C154.922 98.1562 154.56 99.1979 153.836 99.9844C153.112 100.766 152.141 101.156 150.922 101.156C149.703 101.156 148.729 100.766 148 99.9844C147.276 99.2031 146.914 98.1406 146.914 96.7969V96.6953ZM149.172 96.8594C149.172 97.6615 149.323 98.276 149.625 98.7031C149.927 99.125 150.359 99.3359 150.922 99.3359C151.469 99.3359 151.896 99.1276 152.203 98.7109C152.51 98.2891 152.664 97.6172 152.664 96.6953C152.664 95.9089 152.51 95.2995 152.203 94.8672C151.896 94.4349 151.464 94.2188 150.906 94.2188C150.354 94.2188 149.927 94.4349 149.625 94.8672C149.323 95.2943 149.172 95.9583 149.172 96.8594ZM158.391 92.5469L158.461 93.5234C159.065 92.7682 159.875 92.3906 160.891 92.3906C161.786 92.3906 162.453 92.6536 162.891 93.1797C163.328 93.7057 163.552 94.4922 163.562 95.5391V101H161.305V95.5938C161.305 95.1146 161.201 94.7682 160.992 94.5547C160.784 94.3359 160.438 94.2266 159.953 94.2266C159.318 94.2266 158.841 94.4974 158.523 95.0391V101H156.266V92.5469H158.391ZM167.664 101H165.398V92.5469H167.664V101ZM165.266 90.3594C165.266 90.0208 165.378 89.7422 165.602 89.5234C165.831 89.3047 166.141 89.1953 166.531 89.1953C166.917 89.1953 167.224 89.3047 167.453 89.5234C167.682 89.7422 167.797 90.0208 167.797 90.3594C167.797 90.7031 167.68 90.9844 167.445 91.2031C167.216 91.4219 166.911 91.5312 166.531 91.5312C166.151 91.5312 165.844 91.4219 165.609 91.2031C165.38 90.9844 165.266 90.7031 165.266 90.3594ZM172.234 90.4688V92.5469H173.68V94.2031H172.234V98.4219C172.234 98.7344 172.294 98.9583 172.414 99.0938C172.534 99.2292 172.763 99.2969 173.102 99.2969C173.352 99.2969 173.573 99.2786 173.766 99.2422V100.953C173.323 101.089 172.867 101.156 172.398 101.156C170.815 101.156 170.008 100.357 169.977 98.7578V94.2031H168.742V92.5469H169.977V90.4688H172.234ZM174.352 96.6953C174.352 95.8568 174.513 95.1094 174.836 94.4531C175.159 93.7969 175.622 93.2891 176.227 92.9297C176.836 92.5703 177.542 92.3906 178.344 92.3906C179.484 92.3906 180.414 92.7396 181.133 93.4375C181.857 94.1354 182.26 95.0833 182.344 96.2812L182.359 96.8594C182.359 98.1562 181.997 99.1979 181.273 99.9844C180.549 100.766 179.578 101.156 178.359 101.156C177.141 101.156 176.167 100.766 175.438 99.9844C174.714 99.2031 174.352 98.1406 174.352 96.7969V96.6953ZM176.609 96.8594C176.609 97.6615 176.76 98.276 177.062 98.7031C177.365 99.125 177.797 99.3359 178.359 99.3359C178.906 99.3359 179.333 99.1276 179.641 98.7109C179.948 98.2891 180.102 97.6172 180.102 96.6953C180.102 95.9089 179.948 95.2995 179.641 94.8672C179.333 94.4349 178.901 94.2188 178.344 94.2188C177.792 94.2188 177.365 94.4349 177.062 94.8672C176.76 95.2943 176.609 95.9583 176.609 96.8594ZM188.5 94.6641C188.193 94.6224 187.922 94.6016 187.688 94.6016C186.833 94.6016 186.273 94.8906 186.008 95.4688V101H183.75V92.5469H185.883L185.945 93.5547C186.398 92.7786 187.026 92.3906 187.828 92.3906C188.078 92.3906 188.312 92.4245 188.531 92.4922L188.5 94.6641ZM191.977 101H189.711V92.5469H191.977V101ZM189.578 90.3594C189.578 90.0208 189.69 89.7422 189.914 89.5234C190.143 89.3047 190.453 89.1953 190.844 89.1953C191.229 89.1953 191.536 89.3047 191.766 89.5234C191.995 89.7422 192.109 90.0208 192.109 90.3594C192.109 90.7031 191.992 90.9844 191.758 91.2031C191.529 91.4219 191.224 91.5312 190.844 91.5312C190.464 91.5312 190.156 91.4219 189.922 91.2031C189.693 90.9844 189.578 90.7031 189.578 90.3594ZM195.922 92.5469L195.992 93.5234C196.596 92.7682 197.406 92.3906 198.422 92.3906C199.318 92.3906 199.984 92.6536 200.422 93.1797C200.859 93.7057 201.083 94.4922 201.094 95.5391V101H198.836V95.5938C198.836 95.1146 198.732 94.7682 198.523 94.5547C198.315 94.3359 197.969 94.2266 197.484 94.2266C196.849 94.2266 196.372 94.4974 196.055 95.0391V101H193.797V92.5469H195.922ZM202.484 96.7109C202.484 95.4141 202.792 94.3698 203.406 93.5781C204.026 92.7865 204.859 92.3906 205.906 92.3906C206.833 92.3906 207.555 92.7083 208.07 93.3438L208.164 92.5469H210.211V100.719C210.211 101.458 210.042 102.102 209.703 102.648C209.37 103.195 208.898 103.612 208.289 103.898C207.68 104.185 206.966 104.328 206.148 104.328C205.529 104.328 204.924 104.203 204.336 103.953C203.747 103.708 203.302 103.391 203 103L204 101.625C204.562 102.255 205.245 102.57 206.047 102.57C206.646 102.57 207.112 102.409 207.445 102.086C207.779 101.768 207.945 101.315 207.945 100.727V100.273C207.424 100.862 206.74 101.156 205.891 101.156C204.875 101.156 204.052 100.76 203.422 99.9688C202.797 99.1719 202.484 98.1172 202.484 96.8047V96.7109ZM204.742 96.875C204.742 97.6406 204.896 98.2422 205.203 98.6797C205.51 99.112 205.932 99.3281 206.469 99.3281C207.156 99.3281 207.648 99.0703 207.945 98.5547V95C207.643 94.4844 207.156 94.2266 206.484 94.2266C205.943 94.2266 205.516 94.4479 205.203 94.8906C204.896 95.3333 204.742 95.9948 204.742 96.875ZM223.641 101H215.844V99.4531L219.523 95.5312C220.029 94.9792 220.401 94.4974 220.641 94.0859C220.885 93.6745 221.008 93.2839 221.008 92.9141C221.008 92.4089 220.88 92.013 220.625 91.7266C220.37 91.4349 220.005 91.2891 219.531 91.2891C219.021 91.2891 218.617 91.4661 218.32 91.8203C218.029 92.1693 217.883 92.6302 217.883 93.2031H215.617C215.617 92.5104 215.781 91.8776 216.109 91.3047C216.443 90.7318 216.911 90.2839 217.516 89.9609C218.12 89.6328 218.805 89.4688 219.57 89.4688C220.742 89.4688 221.651 89.75 222.297 90.3125C222.948 90.875 223.273 91.6693 223.273 92.6953C223.273 93.2578 223.128 93.8307 222.836 94.4141C222.544 94.9974 222.044 95.6771 221.336 96.4531L218.75 99.1797H223.641V101ZM231.711 96.7188H233V98.5391H231.711V101H229.453V98.5391H224.789L224.688 97.1172L229.43 89.625H231.711V96.7188ZM226.938 96.7188H229.453V92.7031L229.305 92.9609L226.938 96.7188ZM235.023 101.977H233.344L237.531 89.625H239.211L235.023 101.977ZM247.938 90.8906L243.539 101H241.156L245.562 91.4531H239.906V89.625H247.938V90.8906Z" fill="#172755"/>
<path d="M25.6953 134.773H31.0859V136H24.1875V124.625H25.6953V134.773ZM32.1875 131.695C32.1875 130.867 32.349 130.122 32.6719 129.461C33 128.799 33.4531 128.289 34.0312 127.93C34.6146 127.57 35.2786 127.391 36.0234 127.391C37.1745 127.391 38.1042 127.789 38.8125 128.586C39.526 129.383 39.8828 130.443 39.8828 131.766V131.867C39.8828 132.69 39.724 133.43 39.4062 134.086C39.0938 134.737 38.6432 135.245 38.0547 135.609C37.4714 135.974 36.7995 136.156 36.0391 136.156C34.8932 136.156 33.9635 135.758 33.25 134.961C32.5417 134.164 32.1875 133.109 32.1875 131.797V131.695ZM33.6406 131.867C33.6406 132.805 33.8568 133.557 34.2891 134.125C34.7266 134.693 35.3099 134.977 36.0391 134.977C36.7734 134.977 37.3568 134.69 37.7891 134.117C38.2214 133.539 38.4375 132.732 38.4375 131.695C38.4375 130.768 38.2161 130.018 37.7734 129.445C37.3359 128.867 36.7526 128.578 36.0234 128.578C35.3099 128.578 34.7344 128.862 34.2969 129.43C33.8594 129.997 33.6406 130.81 33.6406 131.867ZM45.7812 128.844C45.5625 128.807 45.3255 128.789 45.0703 128.789C44.1224 128.789 43.4792 129.193 43.1406 130V136H41.6953V127.547H43.1016L43.125 128.523C43.599 127.768 44.2708 127.391 45.1406 127.391C45.4219 127.391 45.6354 127.427 45.7812 127.5V128.844ZM50.4688 136.156C49.3229 136.156 48.3906 135.781 47.6719 135.031C46.9531 134.276 46.5938 133.268 46.5938 132.008V131.742C46.5938 130.904 46.7526 130.156 47.0703 129.5C47.3932 128.839 47.8411 128.323 48.4141 127.953C48.9922 127.578 49.6172 127.391 50.2891 127.391C51.388 127.391 52.2422 127.753 52.8516 128.477C53.4609 129.201 53.7656 130.237 53.7656 131.586V132.188H48.0391C48.0599 133.021 48.3021 133.695 48.7656 134.211C49.2344 134.721 49.8281 134.977 50.5469 134.977C51.0573 134.977 51.4896 134.872 51.8438 134.664C52.1979 134.456 52.5078 134.18 52.7734 133.836L53.6562 134.523C52.9479 135.612 51.8854 136.156 50.4688 136.156ZM50.2891 128.578C49.7057 128.578 49.2161 128.792 48.8203 129.219C48.4245 129.641 48.1797 130.234 48.0859 131H52.3203V130.891C52.2786 130.156 52.0807 129.589 51.7266 129.188C51.3724 128.781 50.8932 128.578 50.2891 128.578ZM56.8047 127.547L56.8438 128.484C57.4635 127.755 58.2995 127.391 59.3516 127.391C60.5339 127.391 61.3385 127.844 61.7656 128.75C62.0469 128.344 62.4115 128.016 62.8594 127.766C63.3125 127.516 63.8464 127.391 64.4609 127.391C66.3151 127.391 67.2578 128.372 67.2891 130.336V136H65.8438V130.422C65.8438 129.818 65.7057 129.367 65.4297 129.07C65.1536 128.768 64.6901 128.617 64.0391 128.617C63.5026 128.617 63.0573 128.779 62.7031 129.102C62.349 129.419 62.1432 129.849 62.0859 130.391V136H60.6328V130.461C60.6328 129.232 60.0312 128.617 58.8281 128.617C57.8802 128.617 57.2318 129.021 56.8828 129.828V136H55.4375V127.547H56.8047ZM75.0156 136H73.5703V127.547H75.0156V136ZM73.4531 125.305C73.4531 125.07 73.5234 124.872 73.6641 124.711C73.8099 124.549 74.0234 124.469 74.3047 124.469C74.5859 124.469 74.7995 124.549 74.9453 124.711C75.0911 124.872 75.1641 125.07 75.1641 125.305C75.1641 125.539 75.0911 125.734 74.9453 125.891C74.7995 126.047 74.5859 126.125 74.3047 126.125C74.0234 126.125 73.8099 126.047 73.6641 125.891C73.5234 125.734 73.4531 125.539 73.4531 125.305ZM84.4766 131.867C84.4766 133.154 84.1823 134.19 83.5938 134.977C83.0052 135.763 82.2083 136.156 81.2031 136.156C80.1771 136.156 79.3698 135.831 78.7812 135.18V139.25H77.3359V127.547H78.6562L78.7266 128.484C79.3151 127.755 80.1328 127.391 81.1797 127.391C82.1953 127.391 82.9974 127.773 83.5859 128.539C84.1797 129.305 84.4766 130.37 84.4766 131.734V131.867ZM83.0312 131.703C83.0312 130.75 82.8281 129.997 82.4219 129.445C82.0156 128.893 81.4583 128.617 80.75 128.617C79.875 128.617 79.2188 129.005 78.7812 129.781V133.82C79.2135 134.591 79.875 134.977 80.7656 134.977C81.4583 134.977 82.0078 134.703 82.4141 134.156C82.8255 133.604 83.0312 132.786 83.0312 131.703ZM91.2422 133.758C91.2422 133.367 91.0938 133.065 90.7969 132.852C90.5052 132.633 89.9922 132.445 89.2578 132.289C88.5286 132.133 87.9479 131.945 87.5156 131.727C87.0885 131.508 86.7708 131.247 86.5625 130.945C86.3594 130.643 86.2578 130.284 86.2578 129.867C86.2578 129.174 86.5495 128.589 87.1328 128.109C87.7214 127.63 88.4714 127.391 89.3828 127.391C90.3411 127.391 91.1172 127.638 91.7109 128.133C92.3099 128.628 92.6094 129.26 92.6094 130.031H91.1562C91.1562 129.635 90.987 129.294 90.6484 129.008C90.3151 128.721 89.8932 128.578 89.3828 128.578C88.8568 128.578 88.4453 128.693 88.1484 128.922C87.8516 129.151 87.7031 129.451 87.7031 129.82C87.7031 130.169 87.8411 130.432 88.1172 130.609C88.3932 130.786 88.8906 130.956 89.6094 131.117C90.3333 131.279 90.9193 131.471 91.3672 131.695C91.8151 131.919 92.1458 132.19 92.3594 132.508C92.5781 132.82 92.6875 133.203 92.6875 133.656C92.6875 134.411 92.3854 135.018 91.7812 135.477C91.1771 135.93 90.3932 136.156 89.4297 136.156C88.7526 136.156 88.1536 136.036 87.6328 135.797C87.112 135.557 86.7031 135.224 86.4062 134.797C86.1146 134.365 85.9688 133.898 85.9688 133.398H87.4141C87.4401 133.883 87.6328 134.268 87.9922 134.555C88.3568 134.836 88.8359 134.977 89.4297 134.977C89.9766 134.977 90.4141 134.867 90.7422 134.648C91.0755 134.424 91.2422 134.128 91.2422 133.758ZM99.7891 135.164C99.2266 135.826 98.401 136.156 97.3125 136.156C96.4115 136.156 95.724 135.896 95.25 135.375C94.7812 134.849 94.5443 134.073 94.5391 133.047V127.547H95.9844V133.008C95.9844 134.289 96.5052 134.93 97.5469 134.93C98.651 134.93 99.3854 134.518 99.75 133.695V127.547H101.195V136H99.8203L99.7891 135.164ZM104.758 127.547L104.797 128.484C105.417 127.755 106.253 127.391 107.305 127.391C108.487 127.391 109.292 127.844 109.719 128.75C110 128.344 110.365 128.016 110.812 127.766C111.266 127.516 111.799 127.391 112.414 127.391C114.268 127.391 115.211 128.372 115.242 130.336V136H113.797V130.422C113.797 129.818 113.659 129.367 113.383 129.07C113.107 128.768 112.643 128.617 111.992 128.617C111.456 128.617 111.01 128.779 110.656 129.102C110.302 129.419 110.096 129.849 110.039 130.391V136H108.586V130.461C108.586 129.232 107.984 128.617 106.781 128.617C105.833 128.617 105.185 129.021 104.836 129.828V136H103.391V127.547H104.758ZM121.047 131.703C121.047 130.406 121.354 129.365 121.969 128.578C122.583 127.786 123.388 127.391 124.383 127.391C125.372 127.391 126.156 127.729 126.734 128.406V124H128.18V136H126.852L126.781 135.094C126.203 135.802 125.398 136.156 124.367 136.156C123.388 136.156 122.589 135.755 121.969 134.953C121.354 134.151 121.047 133.104 121.047 131.812V131.703ZM122.492 131.867C122.492 132.826 122.69 133.576 123.086 134.117C123.482 134.659 124.029 134.93 124.727 134.93C125.643 134.93 126.312 134.518 126.734 133.695V129.812C126.302 129.016 125.638 128.617 124.742 128.617C124.034 128.617 123.482 128.891 123.086 129.438C122.69 129.984 122.492 130.794 122.492 131.867ZM130.047 131.695C130.047 130.867 130.208 130.122 130.531 129.461C130.859 128.799 131.312 128.289 131.891 127.93C132.474 127.57 133.138 127.391 133.883 127.391C135.034 127.391 135.964 127.789 136.672 128.586C137.385 129.383 137.742 130.443 137.742 131.766V131.867C137.742 132.69 137.583 133.43 137.266 134.086C136.953 134.737 136.503 135.245 135.914 135.609C135.331 135.974 134.659 136.156 133.898 136.156C132.753 136.156 131.823 135.758 131.109 134.961C130.401 134.164 130.047 133.109 130.047 131.797V131.695ZM131.5 131.867C131.5 132.805 131.716 133.557 132.148 134.125C132.586 134.693 133.169 134.977 133.898 134.977C134.633 134.977 135.216 134.69 135.648 134.117C136.081 133.539 136.297 132.732 136.297 131.695C136.297 130.768 136.076 130.018 135.633 129.445C135.195 128.867 134.612 128.578 133.883 128.578C133.169 128.578 132.594 128.862 132.156 129.43C131.719 129.997 131.5 130.81 131.5 131.867ZM141.125 136H139.68V124H141.125V136ZM143.062 131.695C143.062 130.867 143.224 130.122 143.547 129.461C143.875 128.799 144.328 128.289 144.906 127.93C145.49 127.57 146.154 127.391 146.898 127.391C148.049 127.391 148.979 127.789 149.688 128.586C150.401 129.383 150.758 130.443 150.758 131.766V131.867C150.758 132.69 150.599 133.43 150.281 134.086C149.969 134.737 149.518 135.245 148.93 135.609C148.346 135.974 147.674 136.156 146.914 136.156C145.768 136.156 144.839 135.758 144.125 134.961C143.417 134.164 143.062 133.109 143.062 131.797V131.695ZM144.516 131.867C144.516 132.805 144.732 133.557 145.164 134.125C145.602 134.693 146.185 134.977 146.914 134.977C147.648 134.977 148.232 134.69 148.664 134.117C149.096 133.539 149.312 132.732 149.312 131.695C149.312 130.768 149.091 130.018 148.648 129.445C148.211 128.867 147.628 128.578 146.898 128.578C146.185 128.578 145.609 128.862 145.172 129.43C144.734 129.997 144.516 130.81 144.516 131.867ZM156.656 128.844C156.438 128.807 156.201 128.789 155.945 128.789C154.997 128.789 154.354 129.193 154.016 130V136H152.57V127.547H153.977L154 128.523C154.474 127.768 155.146 127.391 156.016 127.391C156.297 127.391 156.51 127.427 156.656 127.5V128.844ZM166.883 133.758C166.883 133.367 166.734 133.065 166.438 132.852C166.146 132.633 165.633 132.445 164.898 132.289C164.169 132.133 163.589 131.945 163.156 131.727C162.729 131.508 162.411 131.247 162.203 130.945C162 130.643 161.898 130.284 161.898 129.867C161.898 129.174 162.19 128.589 162.773 128.109C163.362 127.63 164.112 127.391 165.023 127.391C165.982 127.391 166.758 127.638 167.352 128.133C167.951 128.628 168.25 129.26 168.25 130.031H166.797C166.797 129.635 166.628 129.294 166.289 129.008C165.956 128.721 165.534 128.578 165.023 128.578C164.497 128.578 164.086 128.693 163.789 128.922C163.492 129.151 163.344 129.451 163.344 129.82C163.344 130.169 163.482 130.432 163.758 130.609C164.034 130.786 164.531 130.956 165.25 131.117C165.974 131.279 166.56 131.471 167.008 131.695C167.456 131.919 167.786 132.19 168 132.508C168.219 132.82 168.328 133.203 168.328 133.656C168.328 134.411 168.026 135.018 167.422 135.477C166.818 135.93 166.034 136.156 165.07 136.156C164.393 136.156 163.794 136.036 163.273 135.797C162.753 135.557 162.344 135.224 162.047 134.797C161.755 134.365 161.609 133.898 161.609 133.398H163.055C163.081 133.883 163.273 134.268 163.633 134.555C163.997 134.836 164.477 134.977 165.07 134.977C165.617 134.977 166.055 134.867 166.383 134.648C166.716 134.424 166.883 134.128 166.883 133.758ZM171.781 136H170.336V127.547H171.781V136ZM170.219 125.305C170.219 125.07 170.289 124.872 170.43 124.711C170.576 124.549 170.789 124.469 171.07 124.469C171.352 124.469 171.565 124.549 171.711 124.711C171.857 124.872 171.93 125.07 171.93 125.305C171.93 125.539 171.857 125.734 171.711 125.891C171.565 126.047 171.352 126.125 171.07 126.125C170.789 126.125 170.576 126.047 170.43 125.891C170.289 125.734 170.219 125.539 170.219 125.305ZM176.062 125.5V127.547H177.641V128.664H176.062V133.906C176.062 134.245 176.133 134.5 176.273 134.672C176.414 134.839 176.654 134.922 176.992 134.922C177.159 134.922 177.388 134.891 177.68 134.828V136C177.299 136.104 176.93 136.156 176.57 136.156C175.924 136.156 175.438 135.961 175.109 135.57C174.781 135.18 174.617 134.625 174.617 133.906V128.664H173.078V127.547H174.617V125.5H176.062ZM188.523 136C188.44 135.833 188.372 135.536 188.32 135.109C187.648 135.807 186.846 136.156 185.914 136.156C185.081 136.156 184.396 135.922 183.859 135.453C183.328 134.979 183.062 134.38 183.062 133.656C183.062 132.776 183.396 132.094 184.062 131.609C184.734 131.12 185.677 130.875 186.891 130.875H188.297V130.211C188.297 129.706 188.146 129.305 187.844 129.008C187.542 128.706 187.096 128.555 186.508 128.555C185.992 128.555 185.56 128.685 185.211 128.945C184.862 129.206 184.688 129.521 184.688 129.891H183.234C183.234 129.469 183.383 129.062 183.68 128.672C183.982 128.276 184.388 127.964 184.898 127.734C185.414 127.505 185.979 127.391 186.594 127.391C187.568 127.391 188.331 127.635 188.883 128.125C189.435 128.609 189.721 129.279 189.742 130.133V134.023C189.742 134.799 189.841 135.417 190.039 135.875V136H188.523ZM186.125 134.898C186.578 134.898 187.008 134.781 187.414 134.547C187.82 134.312 188.115 134.008 188.297 133.633V131.898H187.164C185.393 131.898 184.508 132.417 184.508 133.453C184.508 133.906 184.659 134.26 184.961 134.516C185.263 134.771 185.651 134.898 186.125 134.898ZM193.367 127.547L193.406 128.484C194.026 127.755 194.862 127.391 195.914 127.391C197.096 127.391 197.901 127.844 198.328 128.75C198.609 128.344 198.974 128.016 199.422 127.766C199.875 127.516 200.409 127.391 201.023 127.391C202.878 127.391 203.82 128.372 203.852 130.336V136H202.406V130.422C202.406 129.818 202.268 129.367 201.992 129.07C201.716 128.768 201.253 128.617 200.602 128.617C200.065 128.617 199.62 128.779 199.266 129.102C198.911 129.419 198.706 129.849 198.648 130.391V136H197.195V130.461C197.195 129.232 196.594 128.617 195.391 128.617C194.443 128.617 193.794 129.021 193.445 129.828V136H192V127.547H193.367ZM209.547 136.156C208.401 136.156 207.469 135.781 206.75 135.031C206.031 134.276 205.672 133.268 205.672 132.008V131.742C205.672 130.904 205.831 130.156 206.148 129.5C206.471 128.839 206.919 128.323 207.492 127.953C208.07 127.578 208.695 127.391 209.367 127.391C210.466 127.391 211.32 127.753 211.93 128.477C212.539 129.201 212.844 130.237 212.844 131.586V132.188H207.117C207.138 133.021 207.38 133.695 207.844 134.211C208.312 134.721 208.906 134.977 209.625 134.977C210.135 134.977 210.568 134.872 210.922 134.664C211.276 134.456 211.586 134.18 211.852 133.836L212.734 134.523C212.026 135.612 210.964 136.156 209.547 136.156ZM209.367 128.578C208.784 128.578 208.294 128.792 207.898 129.219C207.503 129.641 207.258 130.234 207.164 131H211.398V130.891C211.357 130.156 211.159 129.589 210.805 129.188C210.451 128.781 209.971 128.578 209.367 128.578ZM216.484 125.5V127.547H218.062V128.664H216.484V133.906C216.484 134.245 216.555 134.5 216.695 134.672C216.836 134.839 217.076 134.922 217.414 134.922C217.581 134.922 217.81 134.891 218.102 134.828V136C217.721 136.104 217.352 136.156 216.992 136.156C216.346 136.156 215.859 135.961 215.531 135.57C215.203 135.18 215.039 134.625 215.039 133.906V128.664H213.5V127.547H215.039V125.5H216.484ZM219.711 138.266L218.891 137.703C219.38 137.021 219.635 136.318 219.656 135.594V134.289H221.07V135.422C221.07 135.948 220.94 136.474 220.68 137C220.424 137.526 220.102 137.948 219.711 138.266ZM230.258 134.977C230.773 134.977 231.224 134.82 231.609 134.508C231.995 134.195 232.208 133.805 232.25 133.336H233.617C233.591 133.82 233.424 134.281 233.117 134.719C232.81 135.156 232.398 135.505 231.883 135.766C231.372 136.026 230.831 136.156 230.258 136.156C229.107 136.156 228.19 135.773 227.508 135.008C226.831 134.237 226.492 133.185 226.492 131.852V131.609C226.492 130.786 226.643 130.055 226.945 129.414C227.247 128.773 227.68 128.276 228.242 127.922C228.81 127.568 229.479 127.391 230.25 127.391C231.198 127.391 231.984 127.674 232.609 128.242C233.24 128.81 233.576 129.547 233.617 130.453H232.25C232.208 129.906 232 129.458 231.625 129.109C231.255 128.755 230.797 128.578 230.25 128.578C229.516 128.578 228.945 128.844 228.539 129.375C228.138 129.901 227.938 130.664 227.938 131.664V131.938C227.938 132.911 228.138 133.661 228.539 134.188C228.94 134.714 229.513 134.977 230.258 134.977ZM234.859 131.695C234.859 130.867 235.021 130.122 235.344 129.461C235.672 128.799 236.125 128.289 236.703 127.93C237.286 127.57 237.951 127.391 238.695 127.391C239.846 127.391 240.776 127.789 241.484 128.586C242.198 129.383 242.555 130.443 242.555 131.766V131.867C242.555 132.69 242.396 133.43 242.078 134.086C241.766 134.737 241.315 135.245 240.727 135.609C240.143 135.974 239.471 136.156 238.711 136.156C237.565 136.156 236.635 135.758 235.922 134.961C235.214 134.164 234.859 133.109 234.859 131.797V131.695ZM236.312 131.867C236.312 132.805 236.529 133.557 236.961 134.125C237.398 134.693 237.982 134.977 238.711 134.977C239.445 134.977 240.029 134.69 240.461 134.117C240.893 133.539 241.109 132.732 241.109 131.695C241.109 130.768 240.888 130.018 240.445 129.445C240.008 128.867 239.424 128.578 238.695 128.578C237.982 128.578 237.406 128.862 236.969 129.43C236.531 129.997 236.312 130.81 236.312 131.867ZM245.734 127.547L245.781 128.609C246.427 127.797 247.271 127.391 248.312 127.391C250.099 127.391 251 128.398 251.016 130.414V136H249.57V130.406C249.565 129.797 249.424 129.346 249.148 129.055C248.878 128.763 248.453 128.617 247.875 128.617C247.406 128.617 246.995 128.742 246.641 128.992C246.286 129.242 246.01 129.57 245.812 129.977V136H244.367V127.547H245.734ZM258.117 133.758C258.117 133.367 257.969 133.065 257.672 132.852C257.38 132.633 256.867 132.445 256.133 132.289C255.404 132.133 254.823 131.945 254.391 131.727C253.964 131.508 253.646 131.247 253.438 130.945C253.234 130.643 253.133 130.284 253.133 129.867C253.133 129.174 253.424 128.589 254.008 128.109C254.596 127.63 255.346 127.391 256.258 127.391C257.216 127.391 257.992 127.638 258.586 128.133C259.185 128.628 259.484 129.26 259.484 130.031H258.031C258.031 129.635 257.862 129.294 257.523 129.008C257.19 128.721 256.768 128.578 256.258 128.578C255.732 128.578 255.32 128.693 255.023 128.922C254.727 129.151 254.578 129.451 254.578 129.82C254.578 130.169 254.716 130.432 254.992 130.609C255.268 130.786 255.766 130.956 256.484 131.117C257.208 131.279 257.794 131.471 258.242 131.695C258.69 131.919 259.021 132.19 259.234 132.508C259.453 132.82 259.562 133.203 259.562 133.656C259.562 134.411 259.26 135.018 258.656 135.477C258.052 135.93 257.268 136.156 256.305 136.156C255.628 136.156 255.029 136.036 254.508 135.797C253.987 135.557 253.578 135.224 253.281 134.797C252.99 134.365 252.844 133.898 252.844 133.398H254.289C254.315 133.883 254.508 134.268 254.867 134.555C255.232 134.836 255.711 134.977 256.305 134.977C256.852 134.977 257.289 134.867 257.617 134.648C257.951 134.424 258.117 134.128 258.117 133.758ZM264.953 136.156C263.807 136.156 262.875 135.781 262.156 135.031C261.438 134.276 261.078 133.268 261.078 132.008V131.742C261.078 130.904 261.237 130.156 261.555 129.5C261.878 128.839 262.326 128.323 262.898 127.953C263.477 127.578 264.102 127.391 264.773 127.391C265.872 127.391 266.727 127.753 267.336 128.477C267.945 129.201 268.25 130.237 268.25 131.586V132.188H262.523C262.544 133.021 262.786 133.695 263.25 134.211C263.719 134.721 264.312 134.977 265.031 134.977C265.542 134.977 265.974 134.872 266.328 134.664C266.682 134.456 266.992 134.18 267.258 133.836L268.141 134.523C267.432 135.612 266.37 136.156 264.953 136.156ZM264.773 128.578C264.19 128.578 263.701 128.792 263.305 129.219C262.909 129.641 262.664 130.234 262.57 131H266.805V130.891C266.763 130.156 266.565 129.589 266.211 129.188C265.857 128.781 265.378 128.578 264.773 128.578ZM273.32 134.977C273.836 134.977 274.286 134.82 274.672 134.508C275.057 134.195 275.271 133.805 275.312 133.336H276.68C276.654 133.82 276.487 134.281 276.18 134.719C275.872 135.156 275.461 135.505 274.945 135.766C274.435 136.026 273.893 136.156 273.32 136.156C272.169 136.156 271.253 135.773 270.57 135.008C269.893 134.237 269.555 133.185 269.555 131.852V131.609C269.555 130.786 269.706 130.055 270.008 129.414C270.31 128.773 270.742 128.276 271.305 127.922C271.872 127.568 272.542 127.391 273.312 127.391C274.26 127.391 275.047 127.674 275.672 128.242C276.302 128.81 276.638 129.547 276.68 130.453H275.312C275.271 129.906 275.062 129.458 274.688 129.109C274.318 128.755 273.859 128.578 273.312 128.578C272.578 128.578 272.008 128.844 271.602 129.375C271.201 129.901 271 130.664 271 131.664V131.938C271 132.911 271.201 133.661 271.602 134.188C272.003 134.714 272.576 134.977 273.32 134.977ZM280.266 125.5V127.547H281.844V128.664H280.266V133.906C280.266 134.245 280.336 134.5 280.477 134.672C280.617 134.839 280.857 134.922 281.195 134.922C281.362 134.922 281.591 134.891 281.883 134.828V136C281.503 136.104 281.133 136.156 280.773 136.156C280.128 136.156 279.641 135.961 279.312 135.57C278.984 135.18 278.82 134.625 278.82 133.906V128.664H277.281V127.547H278.82V125.5H280.266ZM287.047 136.156C285.901 136.156 284.969 135.781 284.25 135.031C283.531 134.276 283.172 133.268 283.172 132.008V131.742C283.172 130.904 283.331 130.156 283.648 129.5C283.971 128.839 284.419 128.323 284.992 127.953C285.57 127.578 286.195 127.391 286.867 127.391C287.966 127.391 288.82 127.753 289.43 128.477C290.039 129.201 290.344 130.237 290.344 131.586V132.188H284.617C284.638 133.021 284.88 133.695 285.344 134.211C285.812 134.721 286.406 134.977 287.125 134.977C287.635 134.977 288.068 134.872 288.422 134.664C288.776 134.456 289.086 134.18 289.352 133.836L290.234 134.523C289.526 135.612 288.464 136.156 287.047 136.156ZM286.867 128.578C286.284 128.578 285.794 128.792 285.398 129.219C285.003 129.641 284.758 130.234 284.664 131H288.898V130.891C288.857 130.156 288.659 129.589 288.305 129.188C287.951 128.781 287.471 128.578 286.867 128.578ZM293.984 125.5V127.547H295.562V128.664H293.984V133.906C293.984 134.245 294.055 134.5 294.195 134.672C294.336 134.839 294.576 134.922 294.914 134.922C295.081 134.922 295.31 134.891 295.602 134.828V136C295.221 136.104 294.852 136.156 294.492 136.156C293.846 136.156 293.359 135.961 293.031 135.57C292.703 135.18 292.539 134.625 292.539 133.906V128.664H291V127.547H292.539V125.5H293.984ZM302.477 135.164C301.914 135.826 301.089 136.156 300 136.156C299.099 136.156 298.411 135.896 297.938 135.375C297.469 134.849 297.232 134.073 297.227 133.047V127.547H298.672V133.008C298.672 134.289 299.193 134.93 300.234 134.93C301.339 134.93 302.073 134.518 302.438 133.695V127.547H303.883V136H302.508L302.477 135.164ZM310.172 128.844C309.953 128.807 309.716 128.789 309.461 128.789C308.513 128.789 307.87 129.193 307.531 130V136H306.086V127.547H307.492L307.516 128.523C307.99 127.768 308.661 127.391 309.531 127.391C309.812 127.391 310.026 127.427 310.172 127.5V128.844ZM320.695 136C320.612 135.833 320.544 135.536 320.492 135.109C319.82 135.807 319.018 136.156 318.086 136.156C317.253 136.156 316.568 135.922 316.031 135.453C315.5 134.979 315.234 134.38 315.234 133.656C315.234 132.776 315.568 132.094 316.234 131.609C316.906 131.12 317.849 130.875 319.062 130.875H320.469V130.211C320.469 129.706 320.318 129.305 320.016 129.008C319.714 128.706 319.268 128.555 318.68 128.555C318.164 128.555 317.732 128.685 317.383 128.945C317.034 129.206 316.859 129.521 316.859 129.891H315.406C315.406 129.469 315.555 129.062 315.852 128.672C316.154 128.276 316.56 127.964 317.07 127.734C317.586 127.505 318.151 127.391 318.766 127.391C319.74 127.391 320.503 127.635 321.055 128.125C321.607 128.609 321.893 129.279 321.914 130.133V134.023C321.914 134.799 322.013 135.417 322.211 135.875V136H320.695ZM318.297 134.898C318.75 134.898 319.18 134.781 319.586 134.547C319.992 134.312 320.286 134.008 320.469 133.633V131.898H319.336C317.565 131.898 316.68 132.417 316.68 133.453C316.68 133.906 316.831 134.26 317.133 134.516C317.435 134.771 317.823 134.898 318.297 134.898ZM323.828 131.703C323.828 130.406 324.135 129.365 324.75 128.578C325.365 127.786 326.169 127.391 327.164 127.391C328.154 127.391 328.938 127.729 329.516 128.406V124H330.961V136H329.633L329.562 135.094C328.984 135.802 328.18 136.156 327.148 136.156C326.169 136.156 325.37 135.755 324.75 134.953C324.135 134.151 323.828 133.104 323.828 131.812V131.703ZM325.273 131.867C325.273 132.826 325.471 133.576 325.867 134.117C326.263 134.659 326.81 134.93 327.508 134.93C328.424 134.93 329.094 134.518 329.516 133.695V129.812C329.083 129.016 328.419 128.617 327.523 128.617C326.815 128.617 326.263 128.891 325.867 129.438C325.471 129.984 325.273 130.794 325.273 131.867ZM334.781 136H333.336V127.547H334.781V136ZM333.219 125.305C333.219 125.07 333.289 124.872 333.43 124.711C333.576 124.549 333.789 124.469 334.07 124.469C334.352 124.469 334.565 124.549 334.711 124.711C334.857 124.872 334.93 125.07 334.93 125.305C334.93 125.539 334.857 125.734 334.711 125.891C334.565 126.047 334.352 126.125 334.07 126.125C333.789 126.125 333.576 126.047 333.43 125.891C333.289 125.734 333.219 125.539 333.219 125.305ZM344.242 131.867C344.242 133.154 343.948 134.19 343.359 134.977C342.771 135.763 341.974 136.156 340.969 136.156C339.943 136.156 339.135 135.831 338.547 135.18V139.25H337.102V127.547H338.422L338.492 128.484C339.081 127.755 339.898 127.391 340.945 127.391C341.961 127.391 342.763 127.773 343.352 128.539C343.945 129.305 344.242 130.37 344.242 131.734V131.867ZM342.797 131.703C342.797 130.75 342.594 129.997 342.188 129.445C341.781 128.893 341.224 128.617 340.516 128.617C339.641 128.617 338.984 129.005 338.547 129.781V133.82C338.979 134.591 339.641 134.977 340.531 134.977C341.224 134.977 341.773 134.703 342.18 134.156C342.591 133.604 342.797 132.786 342.797 131.703ZM347.656 136H346.211V127.547H347.656V136ZM346.094 125.305C346.094 125.07 346.164 124.872 346.305 124.711C346.451 124.549 346.664 124.469 346.945 124.469C347.227 124.469 347.44 124.549 347.586 124.711C347.732 124.872 347.805 125.07 347.805 125.305C347.805 125.539 347.732 125.734 347.586 125.891C347.44 126.047 347.227 126.125 346.945 126.125C346.664 126.125 346.451 126.047 346.305 125.891C346.164 125.734 346.094 125.539 346.094 125.305ZM354.898 133.758C354.898 133.367 354.75 133.065 354.453 132.852C354.161 132.633 353.648 132.445 352.914 132.289C352.185 132.133 351.604 131.945 351.172 131.727C350.745 131.508 350.427 131.247 350.219 130.945C350.016 130.643 349.914 130.284 349.914 129.867C349.914 129.174 350.206 128.589 350.789 128.109C351.378 127.63 352.128 127.391 353.039 127.391C353.997 127.391 354.773 127.638 355.367 128.133C355.966 128.628 356.266 129.26 356.266 130.031H354.812C354.812 129.635 354.643 129.294 354.305 129.008C353.971 128.721 353.549 128.578 353.039 128.578C352.513 128.578 352.102 128.693 351.805 128.922C351.508 129.151 351.359 129.451 351.359 129.82C351.359 130.169 351.497 130.432 351.773 130.609C352.049 130.786 352.547 130.956 353.266 131.117C353.99 131.279 354.576 131.471 355.023 131.695C355.471 131.919 355.802 132.19 356.016 132.508C356.234 132.82 356.344 133.203 356.344 133.656C356.344 134.411 356.042 135.018 355.438 135.477C354.833 135.93 354.049 136.156 353.086 136.156C352.409 136.156 351.81 136.036 351.289 135.797C350.768 135.557 350.359 135.224 350.062 134.797C349.771 134.365 349.625 133.898 349.625 133.398H351.07C351.096 133.883 351.289 134.268 351.648 134.555C352.013 134.836 352.492 134.977 353.086 134.977C353.633 134.977 354.07 134.867 354.398 134.648C354.732 134.424 354.898 134.128 354.898 133.758ZM48.7969 156.977C49.3125 156.977 49.763 156.82 50.1484 156.508C50.5339 156.195 50.7474 155.805 50.7891 155.336H52.1562C52.1302 155.82 51.9635 156.281 51.6562 156.719C51.349 157.156 50.9375 157.505 50.4219 157.766C49.9115 158.026 49.3698 158.156 48.7969 158.156C47.6458 158.156 46.7292 157.773 46.0469 157.008C45.3698 156.237 45.0312 155.185 45.0312 153.852V153.609C45.0312 152.786 45.1823 152.055 45.4844 151.414C45.7865 150.773 46.2188 150.276 46.7812 149.922C47.349 149.568 48.0182 149.391 48.7891 149.391C49.737 149.391 50.5234 149.674 51.1484 150.242C51.7786 150.81 52.1146 151.547 52.1562 152.453H50.7891C50.7474 151.906 50.5391 151.458 50.1641 151.109C49.7943 150.755 49.3359 150.578 48.7891 150.578C48.0547 150.578 47.4844 150.844 47.0781 151.375C46.6771 151.901 46.4766 152.664 46.4766 153.664V153.938C46.4766 154.911 46.6771 155.661 47.0781 156.188C47.4792 156.714 48.0521 156.977 48.7969 156.977ZM55.3516 158H53.9062V149.547H55.3516V158ZM53.7891 147.305C53.7891 147.07 53.8594 146.872 54 146.711C54.1458 146.549 54.3594 146.469 54.6406 146.469C54.9219 146.469 55.1354 146.549 55.2812 146.711C55.4271 146.872 55.5 147.07 55.5 147.305C55.5 147.539 55.4271 147.734 55.2812 147.891C55.1354 148.047 54.9219 148.125 54.6406 148.125C54.3594 148.125 54.1458 148.047 54 147.891C53.8594 147.734 53.7891 147.539 53.7891 147.305ZM59.0391 149.547L59.0859 150.609C59.7318 149.797 60.5755 149.391 61.6172 149.391C63.4036 149.391 64.3047 150.398 64.3203 152.414V158H62.875V152.406C62.8698 151.797 62.7292 151.346 62.4531 151.055C62.1823 150.763 61.7578 150.617 61.1797 150.617C60.7109 150.617 60.2995 150.742 59.9453 150.992C59.5911 151.242 59.3151 151.57 59.1172 151.977V158H57.6719V149.547H59.0391ZM66.1562 153.703C66.1562 152.385 66.4609 151.339 67.0703 150.562C67.6797 149.781 68.487 149.391 69.4922 149.391C70.5234 149.391 71.3281 149.755 71.9062 150.484L71.9766 149.547H73.2969V157.797C73.2969 158.891 72.9714 159.753 72.3203 160.383C71.6745 161.013 70.8047 161.328 69.7109 161.328C69.1016 161.328 68.5052 161.198 67.9219 160.938C67.3385 160.677 66.8932 160.32 66.5859 159.867L67.3359 159C67.9557 159.766 68.7135 160.148 69.6094 160.148C70.3125 160.148 70.8594 159.951 71.25 159.555C71.6458 159.159 71.8438 158.602 71.8438 157.883V157.156C71.2656 157.823 70.4766 158.156 69.4766 158.156C68.487 158.156 67.6849 157.758 67.0703 156.961C66.4609 156.164 66.1562 155.078 66.1562 153.703ZM67.6094 153.867C67.6094 154.82 67.8047 155.57 68.1953 156.117C68.5859 156.659 69.1328 156.93 69.8359 156.93C70.7474 156.93 71.4167 156.516 71.8438 155.688V151.828C71.401 151.021 70.737 150.617 69.8516 150.617C69.1484 150.617 68.599 150.891 68.2031 151.438C67.8073 151.984 67.6094 152.794 67.6094 153.867ZM82.9609 158.156C81.8151 158.156 80.8828 157.781 80.1641 157.031C79.4453 156.276 79.0859 155.268 79.0859 154.008V153.742C79.0859 152.904 79.2448 152.156 79.5625 151.5C79.8854 150.839 80.3333 150.323 80.9062 149.953C81.4844 149.578 82.1094 149.391 82.7812 149.391C83.8802 149.391 84.7344 149.753 85.3438 150.477C85.9531 151.201 86.2578 152.237 86.2578 153.586V154.188H80.5312C80.5521 155.021 80.7943 155.695 81.2578 156.211C81.7266 156.721 82.3203 156.977 83.0391 156.977C83.5495 156.977 83.9818 156.872 84.3359 156.664C84.6901 156.456 85 156.18 85.2656 155.836L86.1484 156.523C85.4401 157.612 84.3776 158.156 82.9609 158.156ZM82.7812 150.578C82.1979 150.578 81.7083 150.792 81.3125 151.219C80.9167 151.641 80.6719 152.234 80.5781 153H84.8125V152.891C84.7708 152.156 84.5729 151.589 84.2188 151.188C83.8646 150.781 83.3854 150.578 82.7812 150.578ZM89.5078 158H88.0625V146H89.5078V158ZM93.3984 158H91.9531V149.547H93.3984V158ZM91.8359 147.305C91.8359 147.07 91.9062 146.872 92.0469 146.711C92.1927 146.549 92.4062 146.469 92.6875 146.469C92.9688 146.469 93.1823 146.549 93.3281 146.711C93.474 146.872 93.5469 147.07 93.5469 147.305C93.5469 147.539 93.474 147.734 93.3281 147.891C93.1823 148.047 92.9688 148.125 92.6875 148.125C92.4062 148.125 92.1927 148.047 92.0469 147.891C91.9062 147.734 91.8359 147.539 91.8359 147.305ZM97.6797 147.5V149.547H99.2578V150.664H97.6797V155.906C97.6797 156.245 97.75 156.5 97.8906 156.672C98.0312 156.839 98.2708 156.922 98.6094 156.922C98.776 156.922 99.0052 156.891 99.2969 156.828V158C98.9167 158.104 98.5469 158.156 98.1875 158.156C97.5417 158.156 97.0547 157.961 96.7266 157.57C96.3984 157.18 96.2344 156.625 96.2344 155.906V150.664H94.6953V149.547H96.2344V147.5H97.6797ZM100.984 157.242C100.984 156.992 101.057 156.784 101.203 156.617C101.354 156.451 101.578 156.367 101.875 156.367C102.172 156.367 102.396 156.451 102.547 156.617C102.703 156.784 102.781 156.992 102.781 157.242C102.781 157.482 102.703 157.682 102.547 157.844C102.396 158.005 102.172 158.086 101.875 158.086C101.578 158.086 101.354 158.005 101.203 157.844C101.057 157.682 100.984 157.482 100.984 157.242ZM115.797 152.742H110.867V156.773H116.594V158H109.367V146.625H116.516V147.859H110.867V151.516H115.797V152.742ZM119.805 158H118.359V146H119.805V158ZM125.633 158.156C124.487 158.156 123.555 157.781 122.836 157.031C122.117 156.276 121.758 155.268 121.758 154.008V153.742C121.758 152.904 121.917 152.156 122.234 151.5C122.557 150.839 123.005 150.323 123.578 149.953C124.156 149.578 124.781 149.391 125.453 149.391C126.552 149.391 127.406 149.753 128.016 150.477C128.625 151.201 128.93 152.237 128.93 153.586V154.188H123.203C123.224 155.021 123.466 155.695 123.93 156.211C124.398 156.721 124.992 156.977 125.711 156.977C126.221 156.977 126.654 156.872 127.008 156.664C127.362 156.456 127.672 156.18 127.938 155.836L128.82 156.523C128.112 157.612 127.049 158.156 125.633 158.156ZM125.453 150.578C124.87 150.578 124.38 150.792 123.984 151.219C123.589 151.641 123.344 152.234 123.25 153H127.484V152.891C127.443 152.156 127.245 151.589 126.891 151.188C126.536 150.781 126.057 150.578 125.453 150.578ZM131.969 149.547L132.008 150.484C132.628 149.755 133.464 149.391 134.516 149.391C135.698 149.391 136.503 149.844 136.93 150.75C137.211 150.344 137.576 150.016 138.023 149.766C138.477 149.516 139.01 149.391 139.625 149.391C141.479 149.391 142.422 150.372 142.453 152.336V158H141.008V152.422C141.008 151.818 140.87 151.367 140.594 151.07C140.318 150.768 139.854 150.617 139.203 150.617C138.667 150.617 138.221 150.779 137.867 151.102C137.513 151.419 137.307 151.849 137.25 152.391V158H135.797V152.461C135.797 151.232 135.195 150.617 133.992 150.617C133.044 150.617 132.396 151.021 132.047 151.828V158H130.602V149.547H131.969ZM148.148 158.156C147.003 158.156 146.07 157.781 145.352 157.031C144.633 156.276 144.273 155.268 144.273 154.008V153.742C144.273 152.904 144.432 152.156 144.75 151.5C145.073 150.839 145.521 150.323 146.094 149.953C146.672 149.578 147.297 149.391 147.969 149.391C149.068 149.391 149.922 149.753 150.531 150.477C151.141 151.201 151.445 152.237 151.445 153.586V154.188H145.719C145.74 155.021 145.982 155.695 146.445 156.211C146.914 156.721 147.508 156.977 148.227 156.977C148.737 156.977 149.169 156.872 149.523 156.664C149.878 156.456 150.188 156.18 150.453 155.836L151.336 156.523C150.628 157.612 149.565 158.156 148.148 158.156ZM147.969 150.578C147.385 150.578 146.896 150.792 146.5 151.219C146.104 151.641 145.859 152.234 145.766 153H150V152.891C149.958 152.156 149.76 151.589 149.406 151.188C149.052 150.781 148.573 150.578 147.969 150.578ZM154.492 149.547L154.539 150.609C155.185 149.797 156.029 149.391 157.07 149.391C158.857 149.391 159.758 150.398 159.773 152.414V158H158.328V152.406C158.323 151.797 158.182 151.346 157.906 151.055C157.635 150.763 157.211 150.617 156.633 150.617C156.164 150.617 155.753 150.742 155.398 150.992C155.044 151.242 154.768 151.57 154.57 151.977V158H153.125V149.547H154.492ZM163.914 147.5V149.547H165.492V150.664H163.914V155.906C163.914 156.245 163.984 156.5 164.125 156.672C164.266 156.839 164.505 156.922 164.844 156.922C165.01 156.922 165.24 156.891 165.531 156.828V158C165.151 158.104 164.781 158.156 164.422 158.156C163.776 158.156 163.289 157.961 162.961 157.57C162.633 157.18 162.469 156.625 162.469 155.906V150.664H160.93V149.547H162.469V147.5H163.914ZM172.406 157.164C171.844 157.826 171.018 158.156 169.93 158.156C169.029 158.156 168.341 157.896 167.867 157.375C167.398 156.849 167.161 156.073 167.156 155.047V149.547H168.602V155.008C168.602 156.289 169.122 156.93 170.164 156.93C171.268 156.93 172.003 156.518 172.367 155.695V149.547H173.812V158H172.438L172.406 157.164ZM177.375 149.547L177.414 150.484C178.034 149.755 178.87 149.391 179.922 149.391C181.104 149.391 181.909 149.844 182.336 150.75C182.617 150.344 182.982 150.016 183.43 149.766C183.883 149.516 184.417 149.391 185.031 149.391C186.885 149.391 187.828 150.372 187.859 152.336V158H186.414V152.422C186.414 151.818 186.276 151.367 186 151.07C185.724 150.768 185.26 150.617 184.609 150.617C184.073 150.617 183.628 150.779 183.273 151.102C182.919 151.419 182.714 151.849 182.656 152.391V158H181.203V152.461C181.203 151.232 180.602 150.617 179.398 150.617C178.451 150.617 177.802 151.021 177.453 151.828V158H176.008V149.547H177.375ZM195.383 149.547L195.43 150.609C196.076 149.797 196.919 149.391 197.961 149.391C199.747 149.391 200.648 150.398 200.664 152.414V158H199.219V152.406C199.214 151.797 199.073 151.346 198.797 151.055C198.526 150.763 198.102 150.617 197.523 150.617C197.055 150.617 196.643 150.742 196.289 150.992C195.935 151.242 195.659 151.57 195.461 151.977V158H194.016V149.547H195.383ZM204.414 158H202.969V149.547H204.414V158ZM202.852 147.305C202.852 147.07 202.922 146.872 203.062 146.711C203.208 146.549 203.422 146.469 203.703 146.469C203.984 146.469 204.198 146.549 204.344 146.711C204.49 146.872 204.562 147.07 204.562 147.305C204.562 147.539 204.49 147.734 204.344 147.891C204.198 148.047 203.984 148.125 203.703 148.125C203.422 148.125 203.208 148.047 203.062 147.891C202.922 147.734 202.852 147.539 202.852 147.305ZM211.656 155.758C211.656 155.367 211.508 155.065 211.211 154.852C210.919 154.633 210.406 154.445 209.672 154.289C208.943 154.133 208.362 153.945 207.93 153.727C207.503 153.508 207.185 153.247 206.977 152.945C206.773 152.643 206.672 152.284 206.672 151.867C206.672 151.174 206.964 150.589 207.547 150.109C208.135 149.63 208.885 149.391 209.797 149.391C210.755 149.391 211.531 149.638 212.125 150.133C212.724 150.628 213.023 151.26 213.023 152.031H211.57C211.57 151.635 211.401 151.294 211.062 151.008C210.729 150.721 210.307 150.578 209.797 150.578C209.271 150.578 208.859 150.693 208.562 150.922C208.266 151.151 208.117 151.451 208.117 151.82C208.117 152.169 208.255 152.432 208.531 152.609C208.807 152.786 209.305 152.956 210.023 153.117C210.747 153.279 211.333 153.471 211.781 153.695C212.229 153.919 212.56 154.19 212.773 154.508C212.992 154.82 213.102 155.203 213.102 155.656C213.102 156.411 212.799 157.018 212.195 157.477C211.591 157.93 210.807 158.156 209.844 158.156C209.167 158.156 208.568 158.036 208.047 157.797C207.526 157.557 207.117 157.224 206.82 156.797C206.529 156.365 206.383 155.898 206.383 155.398H207.828C207.854 155.883 208.047 156.268 208.406 156.555C208.771 156.836 209.25 156.977 209.844 156.977C210.391 156.977 210.828 156.867 211.156 156.648C211.49 156.424 211.656 156.128 211.656 155.758ZM216.555 158H215.109V149.547H216.555V158ZM214.992 147.305C214.992 147.07 215.062 146.872 215.203 146.711C215.349 146.549 215.562 146.469 215.844 146.469C216.125 146.469 216.339 146.549 216.484 146.711C216.63 146.872 216.703 147.07 216.703 147.305C216.703 147.539 216.63 147.734 216.484 147.891C216.339 148.047 216.125 148.125 215.844 148.125C215.562 148.125 215.349 148.047 215.203 147.891C215.062 147.734 214.992 147.539 214.992 147.305ZM228.062 158C227.979 157.833 227.911 157.536 227.859 157.109C227.188 157.807 226.385 158.156 225.453 158.156C224.62 158.156 223.935 157.922 223.398 157.453C222.867 156.979 222.602 156.38 222.602 155.656C222.602 154.776 222.935 154.094 223.602 153.609C224.273 153.12 225.216 152.875 226.43 152.875H227.836V152.211C227.836 151.706 227.685 151.305 227.383 151.008C227.081 150.706 226.635 150.555 226.047 150.555C225.531 150.555 225.099 150.685 224.75 150.945C224.401 151.206 224.227 151.521 224.227 151.891H222.773C222.773 151.469 222.922 151.062 223.219 150.672C223.521 150.276 223.927 149.964 224.438 149.734C224.953 149.505 225.518 149.391 226.133 149.391C227.107 149.391 227.87 149.635 228.422 150.125C228.974 150.609 229.26 151.279 229.281 152.133V156.023C229.281 156.799 229.38 157.417 229.578 157.875V158H228.062ZM225.664 156.898C226.117 156.898 226.547 156.781 226.953 156.547C227.359 156.312 227.654 156.008 227.836 155.633V153.898H226.703C224.932 153.898 224.047 154.417 224.047 155.453C224.047 155.906 224.198 156.26 224.5 156.516C224.802 156.771 225.19 156.898 225.664 156.898ZM233.117 158H231.672V146H233.117V158ZM237.008 158H235.562V149.547H237.008V158ZM235.445 147.305C235.445 147.07 235.516 146.872 235.656 146.711C235.802 146.549 236.016 146.469 236.297 146.469C236.578 146.469 236.792 146.549 236.938 146.711C237.083 146.872 237.156 147.07 237.156 147.305C237.156 147.539 237.083 147.734 236.938 147.891C236.792 148.047 236.578 148.125 236.297 148.125C236.016 148.125 235.802 148.047 235.656 147.891C235.516 147.734 235.445 147.539 235.445 147.305ZM238.977 153.703C238.977 152.375 239.281 151.326 239.891 150.555C240.5 149.779 241.318 149.391 242.344 149.391C243.344 149.391 244.133 149.727 244.711 150.398L244.773 149.547H246.102V161.25H244.656V157.219C244.073 157.844 243.297 158.156 242.328 158.156C241.307 158.156 240.492 157.76 239.883 156.969C239.279 156.172 238.977 155.117 238.977 153.805V153.703ZM240.422 153.867C240.422 154.836 240.625 155.596 241.031 156.148C241.443 156.701 241.995 156.977 242.688 156.977C243.547 156.977 244.203 156.596 244.656 155.836V151.695C244.198 150.951 243.547 150.578 242.703 150.578C242.005 150.578 241.451 150.857 241.039 151.414C240.628 151.966 240.422 152.784 240.422 153.867ZM253.641 157.164C253.078 157.826 252.253 158.156 251.164 158.156C250.263 158.156 249.576 157.896 249.102 157.375C248.633 156.849 248.396 156.073 248.391 155.047V149.547H249.836V155.008C249.836 156.289 250.357 156.93 251.398 156.93C252.503 156.93 253.237 156.518 253.602 155.695V149.547H255.047V158H253.672L253.641 157.164ZM260.758 158.156C259.612 158.156 258.68 157.781 257.961 157.031C257.242 156.276 256.883 155.268 256.883 154.008V153.742C256.883 152.904 257.042 152.156 257.359 151.5C257.682 150.839 258.13 150.323 258.703 149.953C259.281 149.578 259.906 149.391 260.578 149.391C261.677 149.391 262.531 149.753 263.141 150.477C263.75 151.201 264.055 152.237 264.055 153.586V154.188H258.328C258.349 155.021 258.591 155.695 259.055 156.211C259.523 156.721 260.117 156.977 260.836 156.977C261.346 156.977 261.779 156.872 262.133 156.664C262.487 156.456 262.797 156.18 263.062 155.836L263.945 156.523C263.237 157.612 262.174 158.156 260.758 158.156ZM260.578 150.578C259.995 150.578 259.505 150.792 259.109 151.219C258.714 151.641 258.469 152.234 258.375 153H262.609V152.891C262.568 152.156 262.37 151.589 262.016 151.188C261.661 150.781 261.182 150.578 260.578 150.578ZM267.695 147.5V149.547H269.273V150.664H267.695V155.906C267.695 156.245 267.766 156.5 267.906 156.672C268.047 156.839 268.286 156.922 268.625 156.922C268.792 156.922 269.021 156.891 269.312 156.828V158C268.932 158.104 268.562 158.156 268.203 158.156C267.557 158.156 267.07 157.961 266.742 157.57C266.414 157.18 266.25 156.625 266.25 155.906V150.664H264.711V149.547H266.25V147.5H267.695ZM277.727 156.039L279.82 149.547H281.297L278.266 158H277.164L274.102 149.547H275.578L277.727 156.039ZM282.18 153.695C282.18 152.867 282.341 152.122 282.664 151.461C282.992 150.799 283.445 150.289 284.023 149.93C284.607 149.57 285.271 149.391 286.016 149.391C287.167 149.391 288.096 149.789 288.805 150.586C289.518 151.383 289.875 152.443 289.875 153.766V153.867C289.875 154.69 289.716 155.43 289.398 156.086C289.086 156.737 288.635 157.245 288.047 157.609C287.464 157.974 286.792 158.156 286.031 158.156C284.885 158.156 283.956 157.758 283.242 156.961C282.534 156.164 282.18 155.109 282.18 153.797V153.695ZM283.633 153.867C283.633 154.805 283.849 155.557 284.281 156.125C284.719 156.693 285.302 156.977 286.031 156.977C286.766 156.977 287.349 156.69 287.781 156.117C288.214 155.539 288.43 154.732 288.43 153.695C288.43 152.768 288.208 152.018 287.766 151.445C287.328 150.867 286.745 150.578 286.016 150.578C285.302 150.578 284.727 150.862 284.289 151.43C283.852 151.997 283.633 152.81 283.633 153.867ZM293.258 158H291.812V146H293.258V158ZM300.797 157.164C300.234 157.826 299.409 158.156 298.32 158.156C297.419 158.156 296.732 157.896 296.258 157.375C295.789 156.849 295.552 156.073 295.547 155.047V149.547H296.992V155.008C296.992 156.289 297.513 156.93 298.555 156.93C299.659 156.93 300.393 156.518 300.758 155.695V149.547H302.203V158H300.828L300.797 157.164ZM306.367 147.5V149.547H307.945V150.664H306.367V155.906C306.367 156.245 306.438 156.5 306.578 156.672C306.719 156.839 306.958 156.922 307.297 156.922C307.464 156.922 307.693 156.891 307.984 156.828V158C307.604 158.104 307.234 158.156 306.875 158.156C306.229 158.156 305.742 157.961 305.414 157.57C305.086 157.18 304.922 156.625 304.922 155.906V150.664H303.383V149.547H304.922V147.5H306.367ZM316.781 153.867C316.781 155.154 316.487 156.19 315.898 156.977C315.31 157.763 314.513 158.156 313.508 158.156C312.482 158.156 311.674 157.831 311.086 157.18V161.25H309.641V149.547H310.961L311.031 150.484C311.62 149.755 312.438 149.391 313.484 149.391C314.5 149.391 315.302 149.773 315.891 150.539C316.484 151.305 316.781 152.37 316.781 153.734V153.867ZM315.336 153.703C315.336 152.75 315.133 151.997 314.727 151.445C314.32 150.893 313.763 150.617 313.055 150.617C312.18 150.617 311.523 151.005 311.086 151.781V155.82C311.518 156.591 312.18 156.977 313.07 156.977C313.763 156.977 314.312 156.703 314.719 156.156C315.13 155.604 315.336 154.786 315.336 153.703ZM323.844 158C323.76 157.833 323.693 157.536 323.641 157.109C322.969 157.807 322.167 158.156 321.234 158.156C320.401 158.156 319.716 157.922 319.18 157.453C318.648 156.979 318.383 156.38 318.383 155.656C318.383 154.776 318.716 154.094 319.383 153.609C320.055 153.12 320.997 152.875 322.211 152.875H323.617V152.211C323.617 151.706 323.466 151.305 323.164 151.008C322.862 150.706 322.417 150.555 321.828 150.555C321.312 150.555 320.88 150.685 320.531 150.945C320.182 151.206 320.008 151.521 320.008 151.891H318.555C318.555 151.469 318.703 151.062 319 150.672C319.302 150.276 319.708 149.964 320.219 149.734C320.734 149.505 321.299 149.391 321.914 149.391C322.888 149.391 323.651 149.635 324.203 150.125C324.755 150.609 325.042 151.279 325.062 152.133V156.023C325.062 156.799 325.161 157.417 325.359 157.875V158H323.844ZM321.445 156.898C321.898 156.898 322.328 156.781 322.734 156.547C323.141 156.312 323.435 156.008 323.617 155.633V153.898H322.484C320.714 153.898 319.828 154.417 319.828 155.453C319.828 155.906 319.979 156.26 320.281 156.516C320.583 156.771 320.971 156.898 321.445 156.898ZM329.289 147.5V149.547H330.867V150.664H329.289V155.906C329.289 156.245 329.359 156.5 329.5 156.672C329.641 156.839 329.88 156.922 330.219 156.922C330.385 156.922 330.615 156.891 330.906 156.828V158C330.526 158.104 330.156 158.156 329.797 158.156C329.151 158.156 328.664 157.961 328.336 157.57C328.008 157.18 327.844 156.625 327.844 155.906V150.664H326.305V149.547H327.844V147.5H329.289ZM332.594 157.242C332.594 156.992 332.667 156.784 332.812 156.617C332.964 156.451 333.188 156.367 333.484 156.367C333.781 156.367 334.005 156.451 334.156 156.617C334.312 156.784 334.391 156.992 334.391 157.242C334.391 157.482 334.312 157.682 334.156 157.844C334.005 158.005 333.781 158.086 333.484 158.086C333.188 158.086 332.964 158.005 332.812 157.844C332.667 157.682 332.594 157.482 332.594 157.242Z" fill="#8794BA"/>
<g clip-path="url(#clip0_1_267)">
<path d="M207.248 6.71074C202.234 2.99684 196.283 1.03453 190.04 1.03453C184.347 1.03453 178.692 2.67316 174.483 5.48484V1.03453C174.483 0.463477 174.019 0 173.448 0C172.877 0 172.414 0.463477 172.414 1.03453V7.54242C172.414 7.94379 172.645 8.30894 173.008 8.47863C173.371 8.64937 173.801 8.59453 174.109 8.33789C178.055 5.06063 184.01 3.10336 190.04 3.10336C195.836 3.10336 201.361 4.92609 206.017 8.3741C206.202 8.51062 206.417 8.57684 206.631 8.57684C206.948 8.57684 207.26 8.43199 207.463 8.15789C207.803 7.69863 207.707 7.05105 207.248 6.71074Z" fill="#EF2A82"/>
<path d="M218.965 12.4138H212.458C212.056 12.4138 211.693 12.6465 211.522 13.0097C211.352 13.3727 211.406 13.8021 211.663 14.1104C214.94 18.0549 216.898 24.0104 216.898 30.0415C216.898 35.8377 215.075 41.3618 211.627 46.0169C211.287 46.4762 211.383 47.1238 211.842 47.4642C212.027 47.6007 212.242 47.6669 212.457 47.6669C212.773 47.6669 213.086 47.5221 213.289 47.248C217.003 42.2339 218.966 36.2834 218.966 30.0404C218.966 24.3477 217.327 18.6911 214.515 14.4828H218.966C219.537 14.4828 220 14.0193 220 13.4483C220 12.8772 219.536 12.4138 218.965 12.4138Z" fill="#EF2A82"/>
<path d="M206.993 51.5224C206.629 51.3527 206.201 51.4055 205.892 51.6632C201.946 54.9404 195.991 56.8977 189.961 56.8977C184.163 56.8977 178.639 55.075 173.984 51.627C173.525 51.2866 172.877 51.3829 172.537 51.8421C172.197 52.3014 172.293 52.949 172.752 53.2894C177.766 57.0032 183.717 58.9656 189.96 58.9656C195.652 58.9656 201.308 57.327 205.517 54.5153V58.9656C205.517 59.5366 205.981 60.0001 206.552 60.0001C207.123 60.0001 207.586 59.5366 207.586 58.9656V52.4577C207.586 52.0562 207.355 51.6911 206.993 51.5224Z" fill="#EF2A82"/>
<path d="M168.338 45.8907C165.061 41.9453 163.103 35.9907 163.103 29.9597C163.103 24.1635 164.926 18.6394 168.373 13.9842C168.713 13.5249 168.617 12.8774 168.158 12.5369C167.699 12.1956 167.051 12.2928 166.711 12.7521C162.997 17.7662 161.035 23.7165 161.035 29.9597C161.035 35.6524 162.673 41.308 165.485 45.5172H161.035C160.463 45.5172 160 45.9807 160 46.5518C160 47.1228 160.463 47.5863 161.035 47.5863H167.542C167.944 47.5863 168.308 47.3546 168.479 46.9915C168.649 46.6283 168.595 46.1989 168.338 45.8907Z" fill="#EF2A82"/>
<path d="M191.035 19.6531C191.033 19.082 190.57 18.6206 190 18.6206C190 18.6206 189.999 18.6206 189.998 18.6206C189.426 18.6217 188.964 19.0861 188.965 19.6572L188.99 30.002C188.991 30.5731 189.455 31.0344 190.025 31.0344C190.026 31.0344 190.027 31.0344 190.027 31.0344C190.599 31.0334 191.06 30.569 191.059 29.9979L191.035 19.6531Z" fill="#EF2A82"/>
<path d="M190.025 28.9655H183.793C183.222 28.9655 182.759 29.4289 182.759 30C182.759 30.571 183.222 31.0345 183.793 31.0345H190.025C190.596 31.0345 191.059 30.571 191.059 30C191.059 29.4289 190.596 28.9655 190.025 28.9655Z" fill="#EF2A82"/>
<path d="M190 8.27594C178.022 8.27594 168.276 18.0208 168.276 30C168.276 41.9793 178.022 51.7241 190 51.7241C201.979 51.7241 211.724 41.9793 211.724 30C211.724 18.0208 201.979 8.27594 190 8.27594ZM190 49.6552C179.162 49.6552 170.345 40.8384 170.345 30C170.345 19.1617 179.162 10.3449 190 10.3449C200.838 10.3449 209.655 19.1617 209.655 30C209.655 40.8384 200.838 49.6552 190 49.6552Z" fill="#EF2A82"/>
<path d="M175.517 28.9655H173.448C172.877 28.9655 172.414 29.4289 172.414 30C172.414 30.571 172.877 31.0345 173.448 31.0345H175.517C176.088 31.0345 176.552 30.571 176.552 30C176.552 29.4289 176.088 28.9655 175.517 28.9655Z" fill="#EF2A82"/>
<path d="M206.552 28.9655H204.483C203.912 28.9655 203.448 29.4289 203.448 30C203.448 30.571 203.912 31.0345 204.483 31.0345H206.552C207.123 31.0345 207.586 30.571 207.586 30C207.586 29.4289 207.123 28.9655 206.552 28.9655Z" fill="#EF2A82"/>
<path d="M190 43.4483C189.429 43.4483 188.965 43.9118 188.965 44.4828V46.5518C188.965 47.1228 189.429 47.5863 190 47.5863C190.571 47.5863 191.035 47.1228 191.035 46.5518V44.4828C191.035 43.9117 190.571 43.4483 190 43.4483Z" fill="#EF2A82"/>
<path d="M190 12.4138C189.429 12.4138 188.965 12.8772 188.965 13.4483V15.5172C188.965 16.0883 189.429 16.5518 190 16.5518C190.571 16.5518 191.035 16.0883 191.035 15.5172V13.4483C191.035 12.8772 190.571 12.4138 190 12.4138Z" fill="#EF2A82"/>
<path d="M180.387 39.6135C179.983 39.2089 179.328 39.2089 178.924 39.6135L177.565 40.9718C177.161 41.3753 177.161 42.0301 177.565 42.4345C177.766 42.6362 178.031 42.7376 178.296 42.7376C178.561 42.7376 178.826 42.6373 179.027 42.4345L180.387 41.0762C180.79 40.6727 180.79 40.0179 180.387 39.6135Z" fill="#EF2A82"/>
<path d="M202.435 17.5655C202.03 17.161 201.376 17.161 200.972 17.5655L199.613 18.9238C199.209 19.3283 199.209 19.9821 199.613 20.3865C199.815 20.5882 200.08 20.6896 200.345 20.6896C200.61 20.6896 200.875 20.5882 201.076 20.3865L202.435 19.0282C202.839 18.6238 202.839 17.97 202.435 17.5655Z" fill="#EF2A82"/>
<path d="M202.435 40.9717L201.076 39.6134C200.672 39.2088 200.018 39.2088 199.613 39.6134C199.209 40.0179 199.209 40.6717 199.613 41.0761L200.972 42.4344C201.173 42.6361 201.438 42.7375 201.703 42.7375C201.968 42.7375 202.233 42.6372 202.435 42.4344C202.839 42.03 202.839 41.3762 202.435 40.9717Z" fill="#EF2A82"/>
<path d="M180.387 18.9238L179.027 17.5655C178.624 17.161 177.969 17.161 177.565 17.5655C177.16 17.97 177.16 18.6247 177.565 19.0282L178.924 20.3865C179.125 20.5882 179.39 20.6896 179.655 20.6896C179.92 20.6896 180.185 20.5882 180.387 20.3865C180.791 19.9821 180.791 19.3273 180.387 18.9238Z" fill="#EF2A82"/>
</g>
<defs>
<clipPath id="clip0_1_267">
<rect width="60" height="60" fill="white" transform="translate(160)"/>
</clipPath>
</defs>
</svg>
